<mxfile host="app.diagrams.net" modified="2022-07-01T08:51:19.479Z" agent="5.0 (Windows NT 10.0; Win64; x64) AppleWebKit/537.36 (KHTML, like Gecko) Chrome/102.0.0.0 Safari/537.36" etag="HwH8_GVY6ir01q3e4FIH" version="20.0.4" type="github">
  <diagram id="C5RBs43oDa-KdzZeNtuy" name="Page-1">
    <mxGraphModel dx="782" dy="436" grid="1" gridSize="10" guides="1" tooltips="1" connect="1" arrows="1" fold="1" page="1" pageScale="1" pageWidth="827" pageHeight="1169" background="#FFFFFF" math="0" shadow="0">
      <root>
        <mxCell id="WIyWlLk6GJQsqaUBKTNV-0" />
        <mxCell id="WIyWlLk6GJQsqaUBKTNV-1" parent="WIyWlLk6GJQsqaUBKTNV-0" />
        <mxCell id="u5dyA5r-_2eAr6q3dXi0-3" value="" style="edgeStyle=orthogonalEdgeStyle;rounded=0;orthogonalLoop=1;jettySize=auto;html=1;" edge="1" parent="WIyWlLk6GJQsqaUBKTNV-1" source="u5dyA5r-_2eAr6q3dXi0-0" target="u5dyA5r-_2eAr6q3dXi0-2">
          <mxGeometry relative="1" as="geometry" />
        </mxCell>
        <mxCell id="u5dyA5r-_2eAr6q3dXi0-0" value="" style="sketch=0;outlineConnect=0;fontColor=#232F3E;gradientColor=none;fillColor=#232F3D;strokeColor=none;dashed=0;verticalLabelPosition=bottom;verticalAlign=top;align=center;html=1;fontSize=12;fontStyle=0;aspect=fixed;pointerEvents=1;shape=mxgraph.aws4.user;" vertex="1" parent="WIyWlLk6GJQsqaUBKTNV-1">
          <mxGeometry x="90" y="329" width="70" height="70" as="geometry" />
        </mxCell>
        <mxCell id="u5dyA5r-_2eAr6q3dXi0-10" value="" style="edgeStyle=orthogonalEdgeStyle;rounded=0;orthogonalLoop=1;jettySize=auto;html=1;" edge="1" parent="WIyWlLk6GJQsqaUBKTNV-1" source="u5dyA5r-_2eAr6q3dXi0-2" target="u5dyA5r-_2eAr6q3dXi0-9">
          <mxGeometry relative="1" as="geometry" />
        </mxCell>
        <mxCell id="u5dyA5r-_2eAr6q3dXi0-2" value="Jenkins" style="rounded=0;whiteSpace=wrap;html=1;fillColor=#f8cecc;strokeColor=#b85450;" vertex="1" parent="WIyWlLk6GJQsqaUBKTNV-1">
          <mxGeometry x="280" y="334" width="120" height="60" as="geometry" />
        </mxCell>
        <mxCell id="u5dyA5r-_2eAr6q3dXi0-7" value="" style="edgeStyle=orthogonalEdgeStyle;rounded=0;orthogonalLoop=1;jettySize=auto;html=1;" edge="1" parent="WIyWlLk6GJQsqaUBKTNV-1" source="u5dyA5r-_2eAr6q3dXi0-6" target="u5dyA5r-_2eAr6q3dXi0-2">
          <mxGeometry relative="1" as="geometry" />
        </mxCell>
        <mxCell id="u5dyA5r-_2eAr6q3dXi0-6" value="" style="shape=image;verticalLabelPosition=bottom;labelBackgroundColor=default;verticalAlign=top;aspect=fixed;imageAspect=0;image=data:image/png,iVBORw0KGgoAAAANSUhEUgAAAJwAAACTCAYAAAB77nCYAAAgAElEQVR4nOy9eYxcx33v+6mqc3qd7tk5M+Rwp7hqoUnJlGRZVvysZ+lZN3AQOAkert918G6A/GPkn+sgN0FwgwABjPzjIAliBLGRd5HEip8jR7IVr/EuS7ZkMRK1WCsprkNy9p7p9Zyqen/UOadP9/RwsckRed/8iOZ0n6VOLb/6Ld/fr+oIa61lndZpjUi+2xVYp/9/0TrDrdOa0jrDrdOa0jrDrdOa0jrDrdOa0jrDrdOa0jrDrdOaknc1F6chOyEExhiazSZKKTKZzGWvXw3yE0Ksek+vMq21CCFW3Nfr+NXSpWDJqym/V9u77+9+Vvp4fG33+Uud6773avvhcn2fvi4MApSUSO+qWAixGvB7qY43JkQIBYDWGiklSqlL3rcaw8XH4g7q7tD4t5RXLoyttRijUcpbteNWG2xjDMaYpD2Xeka6zpeiK7km3Q9XQ6u141JlXQnW7/qw3Q8rJrcx7ljUtitl8MuOYjzg6YdqbdBaI4TA8zyUUsl13Z8rIa118qz0c8ExwNXUzd2jL3lfr/svVd/u49bapM7dZfVqw9X2w+Xq3OtYr/Z216VXe1erozEGjFn1eiElJPygr3jcr0rCrTZT4+NhGKKkdJUBrDEYa1FKXZGES18fD6qXEtnd5WvtGMv3/Q7pGJeX/nsl7etqFEZrjNYob3VJ2d2ubumcrkNSf6Vglb5Il3c5idFLtfaqX7ouK8owBm2M62chIDWZ0lI+qVt0fTxGsRRcTcV306oSLq0uVpMW3WJURSI2dUHy1RiD1mF8ImlsR+WEQKbL6xLncfki9elWfaLrfFz/q5G4ACaatbJHZ8ZkjcFGkn41OzRNSkqMtZhVJFlsF6fb3NOOTUkeY8IOldZ9fVrqhGG4okwb1UsIgQBsVDcZSbD4WekxUun+73pmLO1Wo8tafMYYrDE9bahu+0t4HtaCtWYFQ1jrpJGUFikF1riZpJRKGDO2CVZ0StyhkbQzkf0Qz7L0Nd11ixlORp26moTuvi+um0xJo+7BNHRKkG6bbsWsVwoRSc3VbNJeEmMFE4GbmEIQBAFCkJTXS/27OmmsNSuuSd/XIdliaWdMh1YRQmBTYyRSGqiXObGiD1ZTqb0K6aU+0pXudU8vMsasUFVpSdotytPlG2Oo1WoUCgWklKs2LAiCngYvtB2dXlJkNZvmck6L6TEpu8vopaoAWq0WUsrEfLgax8Fa22ZAYk3SNkWuRO32qkP3vd19FIatyFn0O46n//aSuJeVcL0qmx4way2vvPIKx48fZ2Jigi1bJhkd3QC0Z3sYhomDEZcZq6r4GiFEx2yLnyulZHl5mampKd58800mJyfZt2/fig6oVCqcPXuWV155hR07dnDo0KHkWbFXhbWwiqS+FMwgpaTRaPDmm2/y+OOPs7y8zMTEBOPj44yOjjIxMcGuXbs4fvxt3nrrbXbv3s3ExATFYrFDusbt6Z64sZcfX9NqtTh37hw/eupHHH/7OAsLC+16AaHW7N+/n3vuuYcDB27F8xQmDJ1tyEqGtlon7bZWI8RKMyGNNHT3Te9+EdHn0hqjmy7LcD2llTHYFIO8+OKLfP3rX+euu+7C9+9nw4YxYjstLiPdmG7Ov5yBX6lUePXVV3niiSf40Ic+xO23376irHq9zunTp3n66adRSnH48OGOa2ysrlOMnzBiqj6rMd7i4iJHjx7lb/7mb2i1Wtx5553s2bOHHTt2oLVm584dvPTSS3z969/gV3/1VykUCvT19UUqUiBEb+khhMD3/cTOEkLQarU4fvw4n/vc53jhhRdoNVv4vp9cV6vVuOOOO1hcXGRiYoINGzY4Z4uVklgIgbYWonZqbfA8gRCdQ+/7KyWVEGKFNoiPSyk7ntWtCVcbyytC7WL9Hs9C5fsYYxz4pxSe55HNZvE8D8/zgU5sphsUFtYSdHmgq1HsiSqlOqRAGIYd94+PjzMwMMC9997b0XkxraYStdZ4l8HcAJaXl8nlcvzhH/4hBw4c4PDhw4lU8DwPqRRBGJDJZMhkMonn3AsQj+uzmr0Va4P+cj//9f/+r/zar/0ao6OjZDIZgiCg0Wjw2GOP8eyzz3Lw4EHuuusuhoaGVndWUhiplJnLqti0BF5tjDzPW8Fk8TMuRVcME6e9x0QiRMak7CEhhBBcuHCBn/3sZzzzzDPMzs4yNjbGI488wt69e+nr68Nay8svv8zxt95ieGSEn7/2GseOHUNKyYEDB7j77rvZt29fMmhpRvI8jzfeeIMXXniBfD7Ptm3bGB4e5vXXX2fr1q1s2rSJo0eP0mg0aDabvPnWW5w7exYpJQcPHuTw4cPs2LED3/cJwpDjb73FF7/4RS5cuEC5XGbjxo28//3v58CBA5w8eZJ/+Zd/4Zvf/CalUokwDCmXy4njUurrY8vWrfiRPZO256rVKt/4xjf47ne/i1KKrVu3cvjQId53331tyRapPNE1KaSUTExM8J73vIdisdhx7s033+T06dNMTU0xNzfH0NAQQgguXrzI888/z49//GNmZmYYHx/nkUce4cCBA+TzeYwxvPLKq5w+fYrJyUmOHz/Oiy++yMLCAgcPHuSBBx5g06ZNCZPW63W+9a1v8Z3vfAeAbdu2cejQIe69914ymUziwKVNo2vDcKlZIuiUGImd1IVBvfzyy3z5scf42te/zvnz55mYmKDVavHrv/7rHD58GGMML730Ek8++STbt2/nueee43vf+x5hGHLo0CFmZ2fZtGlTwmixRNFa02g0eO655/jOd77Dpk2bCMOQ8+fP80//9E888sgjjI6O8vTTT3Py5EmWl5d56623eOONN2g0Gtx111389m//NhMTE+TzeS5cuMCPfvQjPv/5z3PmzBk2jI6yaXIS3/cZHR3l1KlTvPDCC3z/+98HnI0VhiFLS0vkcjluueUWV89oYsTRikajwYsvvshjjz3Go48+SiaTYc+ePUxNTbFx00Z27boFKSUakMasYDhjNEEQUKvVyGYyeKkJVyqVGB0dJQxDWq1WR5//67/+K08++SRTU1NMTEwQhiFSSg4dOoQxhmPHXuSb3/wmBw4c4M033+Spp57i9OnTvP/97yeTyfDQQw8xMDDA0tISx44d49FHH+WLX/wivu+zb98+zp07x9jYGLfcckuH9LwS5+TqYqmxB5RWWZHrnFYFWmt+8pOf8Mwzz9Df38+/fvnLDAwM8OKxY/zVX/0VQRBQKpXYvHkzxWKRTCbDqVOn+K3f/E3+4jOf4eSpU/zzP/8z3/jGN3jggQfYuHEjSinCMMT3fSqVCn/7t3+LEILf+I3f4ODBgwnzxpEPpRS5XI5z584hpeRP//RPGR0d5YUXXuCv//qvOXr0KIcPH2Z8fJwf/vCHPP/883zmM59h9+7dWK155qc/pdls8vzzz3P//ffzyU9+kr179zIzM8PDDz/MoUOHePTRR6nX6/i+j0l57EIIqtUq586d4/Of/zw7d+7kBz/4AePj43z/+9/nqaee4otf/H95+OGHufPOOxP11O0sSeli1Pl8vrPPgdOnT/Pyyy9z8OBBhoeHCcOQn/70pzz11FNks1m+9KUvMTQ0xLFjx/jLv/xLms0m/f39bN68mb6+PsIw5Nvf/jYf+chH+NSnPsW5c+d48skn+cpXvsLevXvZuXMnr7zyCp/+9KeZmJjgiSeeYPv27fz4xz/mmWee4ctf/jIPPfQQhw8fdlEnazsgkmvCcETepe1yGmLJI6VEa838/DzPPfccS0tL3Hb77dx9zz0ATGyc4Dvf/W6ibrdu3Zow6tjYGAduvZV9+/ezdds2jh49yrlz5wiCIMKaBKVSibfffjuZ9XfccQdHjhxhcHCQubk5wjBM1G+z2UQIQV9fHwMDA9x+++0MDQ1RKBR44okn8H2fer2OMYbp6Wmmp6fZv38/e/fuBWBsYoKzZ8/ieR4DAwNMTEywY8cOcrkck5OTjI2NOdstansMLsfQwtzcHKdOnaJWq7Fv717uv/9+APL5fOTxvsW5c+dSXbsSsG0FLb72ta/x2muvJRMTnAStVqvccccdHDhwgNHRURYWFnj22WdZWlriPe95D+973/sA2LhxI9/+9rcBmJqaYnJyMjEFNm/ezP79+9m9eze7d+/m1KlTzMzMcOLECZRSVCoVjDHs2bObhx76MJlMFiklc3NzvPzyy+zYscPZsoBNOxARdit6gOZXDIvExmCs0kT7ghWQRuwx1ut1giDg5z//OUNDQ5w9e5bJTZswxjAzM5Ngb0II9uzZw9DQUPKMDRs2sGXLFvL5POCchGq1yrFjx5iammLLli3s3r2bwcFBwNkaMf5krU3U3vj4ONu3b09Efy6XS+w9KSW+77NhwwZGRkZ48803McZQKpfpKxa5/fbbk/tqtRrNZpNGo0G9XqfZbCZ9ZIxJbNxYyi8tLXHx4kWUUswvLHDq5EmkUly8eJGBgQEajTpLS0sEQZCYDDEOGUu7IAh44cUX+OlPf5o4GXE7P/rRj/Lxj3+c/fv3I6WkWq1y8uTJBIL6+c9/zsjICGfPnmViYgIhBDMzM2it0VqTzWa5++672bZtW9KO7du3s2PHDqanpxP7bNeuXezYsYNMJgvAxMQEhw4d4tlnn2V6eppWy3nQMuVoWGMwQC9X7OokXETdeI0xzqYKgoBsNsvAwAB9fX18+9vf5nOf+xzFYhEpJWEYsry8zJEjRxgaGqJarWKtJZfLMTg4mDBX7I63Wi201mQyGWq1Go899hh79uzh4MGDTE1NcfHixY46CSFoNpt4nkehUKDVajEwMMCWLVsSbysGRuPBzWQyPPzww5TLZT772c/y7LPPkslk+MhHPsLHP/5x7rvvvqR8pRRBECSDGrcpBk2lEIRhmEjaarXKv//7v/Poo4/yx3/8x0n9lFJs2bKFw4cPp0JPGq0Nvu+kmPOePf7LJ/4Lv/mx32RgYIDZ2Vl+9rOf8dhj/8J9993HoUOHk7GIJfHjjz/O3/3d31EoFJL6VioV7r77bsbHxxOp7mcyjI+PUywWO7zj2Ouu1+ssLy/TaDRotYIEHpFSks/nKZfL5HK5FA+YNpKhVE9muyqGk1LSbDa5cOECzz//PFu2bOXgwTuiBovEdgmCIJEAe/fu5eDBg/T19SXqp6+vj507d3Lrrbd2AKMxrBJXPm3PxAH6yclJjhw5wr333stXvvIVTpw4wYkTJ9i2bVvCENApjWMJGlM8wLFhL6VkYGCA++67j3PnzrF3714ajQaFQoGXX34ZpRTvfe97k7K6gdsErnEzJVGx1lp83+fWW2+lr6+PHTt2JKZBuVRi2/bt3HXXXSnnS6xwxDKZDJMbJzn4nveQjdTpyMgwJ06cYHFxkWeeeZojR45QKBQSR2rPnj3cdtttFAqFCKbyyOfz7N69m4MHDyYMhrU0Go2O/qkuLbG4uMjo6Ci+75PNOqnm+37St7GkrdVqNBqNxK7uFVf9hRgujatorTl16hT/+I//yAc+8AH273eQRRywjW2MRqOBlJIjR47w4IMPdgC1zWYzuVZKmTBXmuKBjRsZhiH5fJ577rmHX/mVX+Hw4cMcO3aM8+fP8/TTTzM6OpowtBAuyyOebfV6nVqt1lG+lG0zodVqJR33O7/zO8k1X//61zl69ChPP/00t912WyLN0owd1zOTyWBoRyViKTE8PMyRI0f48Ic/nNhwAEGrlWRcxMwphEzqBSTSptlsMjc7m7Rx06ZJ7rjjDp566im+9KUvsWPHjg5b+L3vfe+KPm/U61hjyORyiSYIgoBTp06xZ88eNm/eDMD09DTnz59n3759DA8Pk8lmaTabHf23vLzM+fPnE5MiDYOJFKC+Gl1RVmNcQDabpVQqkc/nE2aJB7VSqTA4OMjg4CDDw8PcdtttnD9/nscff5xWy1XuwoULfOpTn+JP/uRP+M53vkO9VnMZFMYQhmFHrFEIlzkR22JpFN7zFPfffz9SSn784x8nHRIEgWu8lC6zpFeDpUP9MxkHgM7NzfGFL3yBP/uzP2NmZia5zvd9RkZG2Lx5s/NCIxUchmHyPZ5osQmgtSYMQ+r1OqOjo0xOTnLs2DGef/75pA9fe+01PvMXf8Ef/MEf8I1vfCN5XlqaE0VmwjCk2Wy6Pojals/neeihh9i+fTtnzpzh+PHjtFotBgcHuf3227lw4QJf/epXE4ZYXFzkD/77f+eP/8f/4Fvf+hb1Wg3f92k0GrzwwguJ4xKGIWenpjh79izbtm1j165dZDMZXn/9dY4ePcqZM2cAeOONN/j+97/P2NgYO3fuTLC9K8k/hEtIuHQ6TyzqlVKMjY3xwAMPcOzYMX73d3+XfD7P8vIy4+Pj7Nq1i8HBQTzP495772VpaYlnnnmG//bfPoW1lmq1yszMDPfddx9bNm/G87zEEE+ntcSSp1arJcdi+6+6vIwQkp07d7Jnzx5mZmb43ve+x6ZNmwBn3LdaLQwkoK8lHVg21Ot1qtUqWmvy+TzDw8NUKhX+6I/+iGw2m0QKDhw4wMGDB/E8jyAIErsyTvMJgoBms0kQBBhjkihAvV6nWCxyyy238MADD/Dqq6/yiU98gpGREebn52k2m9x5552Jx5gmYzQmij/XarUEQ0sjAuPj49xxxx2cOXOGJ554glarxQc+8AHuueceqtUqzzzzDL//+7+PEoJao8HZs2e5933vY9u2bWSz2QTCKRQKPPnkk3z1q19laWmJbDbLRz7yEXbt2sXo6ChbN2/m4Ycf5tVXX+WTn/wkExMTVKtVPM/j4Ycf5uDBg0mdTGyLxhDZKpGdS6rUOKs3LTaHh4d58MEHE0BQSskHP/hBHn74YXbt2pV4XFu3buXee+/l5MmT/MM//AOnT59my5YtfOITn+CRRx5hTwQ/FPv62LRpEwMDA4lKttYmmFG5XKZQKNDf38/Y2FiCuPu+zx133EGz2eSdd95JQNqJiQlKpRJAAoMM9PcnalApd138vMHBQe69917m5ub49Kc/zfHjxxkfH+dDH/oQH/zgB9m9e7frKKUYGRmh0WhQLBYRQjA6Okq9Xqevrw8pJf39/WzatIlyuZww8m/91m/x53/+5/z93/89Sil2797Nww8/zMc+9jEmJyc7JjhYogAOxWKR7du3Mz4+Ti6XQ3VhXLfddhuVSoXHH3+c48eP84EPfIBt27Ylff4//+f/5PTp02zevJmPf/zj/KdHHmHfvn1u8rZaZDIZbrnlFn74wx/yb//2bxhj+L3f+z3+83/+PxkdHUMIwZatW/nEJz7BZz7zGT772c9ireXOO+/kYx/7GA8++CD9/f1tWzay7bTWHelM3XTZjN9YhcQqKHbX5+cXqFQWsdZSKBQol8tJx8fUbDapVCod7n9/fz+lUilhrkqlQr1ep1QqJUaqCUOqEaQSOxwxLJLL5ZIBb7VaiYSJDdtqtUo+nyefz1OtVgmDAM/zXN1SXptSinw+n6jLarXK7OwsrVYLpRR9fX2Uy+WEwRv1OvV6HYuTDJlMhoWFhaRvisViYu8UCgWy2ayzlVot5hcWqFQqSaA+xgbb9ls6MwW0dhK+Uqng+z7FQgE/ZfPG9mStVmN5eZl8Ps/AwEDSJ0tLSywsLBAELrab7nNjDF/60pf4wQ9/yP/+4INs3brFMbTy6O8v0d8/QDabS0yaRqPhxrBSSWzpgcHBJLQXx7TTmUFKiFUX11w2Hy52d2MjFq5+oceVUqLGrU1CaatddyULXbpptZy1X6Q93WUZrTvqnGRcQGcWdNezV/y2FtGVnRHbdZfKarmStsT99oUvfIEf/OAHfPSjH+V973tfgmW6azTWiq5JsFJauXUjtiOTpDvlqhdd1kuNC4xtrLigMAwiuOLy2QfpBsfUDVVcbtlZL0/2SoLG6eO9OqE7Ny3+rYPA2U496pO2NZPrI4dHSHlVbemudxiGDsOKojZJ/0fg8mpZGd3OS3qdR5pi1b9hwwZyuVxij6auAC691DCRZEoiRPv6uD2X4ofLSrjuxvVq8LVguMuVdQXV7ElXUrdeDHep+y91/ZU8+0r6YTW60jSgS9WtWq0mjk02m12RYb3aM6+0nr80w63TOl0rWt/qYZ3WlNYZbp3WlNYZbp3WlNYZbp3WlNYZbp3WlNYZbp3WlNYZbp3WlNYZbp3WlNYZbp3WlNYZbp3WlNYZbp3WlNYZbp3WlNYZbp3WlNYZbp3WlNYZbp3WlNYZbp3WlNYZbp3WlNYZbp3WlNYZbp3WlNYZbp3WlH6h7br+16HV1g9dn3W315561f/GrvtNxHA9OtdeonMv2++2429q4V7vZ11JkZd82sq7ReeDO07YHieEO3GJAuK637hMdxMx3Cr0S01yi3uBUfTeKgQWgUV2FCGvpshLkIk+kiuzZa7s+rj+gmtX0+tHNyfDXclK2vgacTnFmd5mymJRHddfSyNX0M0OV6bSLR3N6XFt+oobm24ihltt5l5ZR3fvXiYAYSHNUrGMsCJ9XrQZ5TLCw17il4heN9ChsNsP6aqZTZ4r6WInkdqzpKP+tn37DUw3EcOtQkkHx6ql0zZrn23LF4FMsZHqGKtfdp+e9NPj792KTiSqvPvK+Gp3R/qeFaZbB908YMNNyXCxr9A2rGPrq22PrbgnZedY4iESiRm3KqOlddkqeq03i4uVEs+mbhWCtpWWJgO204Ykae9qAuwGF2spuukYLvYp2/LMRizU5oZezptMMUBKSSbnL6uZL+P82a4vkexMvrdvjgvqIb+6VDx0S8ZVnnmJa240uukYDtpywWKw0T83hBKVDGZn16+6k1z60tW2qb2CUfzFBjqtbKMpZKNjXQWuVv7Ver7vNt2UDBd7l47hOmVGB8PF0iYtnZKRsyuFTLdn0CVeVpMol2Q2233hKldbSc8nrOC9dP1sIuVtr/M3IN08DNflhAksUnSOZ/ItDQjHHCnp4RF23d1rrLrsxV4wa8eliebszaF2BT+L3idXpW7LMF2vdeD32lKqr5VQOGWi6Ql6dnNCYtilHYv4vsuTswB1yndcDc5IKbfVhNlqp66KT1w7OgdwHfi99mRJ7bDYbZr36Oy0ByHScERHkVixEqxY+dc9I4WE9TDqhRt20anqRVdJtqu+rk1XgCmmLhHC0MnoNz7dRAzX1qmd9kpvlbT6PI/3pE0dEo7RgugTRk8LcfIzAEIj0DZ6A03EPvHTJeArx/oKyOI6Nj6naMs9GSGCLqJh2zWyaZyQRP1boF3ZTmwuae912uT7etBNxHCs0JjdzmWHX5DWfJqopWkpYCNIRSTMVY8+rei2JWAeWAbm6oKFKmgJ2oKxkVwxkJcwPgRlD0rAKFCgzYAxEzqGc3ihjqplEPhIx1864rP4JkIMATpS5QoPgQdCgRbO0VC9pfaNSjcJw8UepcFaE8kFD7fLvEBbkCI90SPZEQtF5U5o4z6o2KYXKARVYNbCVDXgYqPJfKPJcr3BYqhZNNDAp9ISLLckWiq0FRgDnhQII8gKw+BFQ1EGFK1hWAr6M4q+bJaBYoHhvgyjvmAIMJEJoBEYLCJSwR7uhSA20pJt+WaQCfAR2Z/agol/QzfidyPTTcJwMQtZLAZjBUo4ZrMWhHaTPn43WqKGjOPEODbasoK6dczWsIKasTSMZjqEM3XN8bllzi0uc2FhkZm5CtV6C40AlQXlo6XCoBL7y709D6S1CB0iWi2UCch60F/MMVwuMb5hhMnRAlv6fbZKKHuCjPTJCvCBDJGpL5zX7Zxsx3Emss2EkFEwTrbbhcWqFPyTONo3NtPdJLuYx+ymwQoEwtk8EfQgon6PhCBWRBJRaIR1MkILQV0IakADeCuEF+fg1QsznFlcZq4Z0tCWIAwJgha62cJDkhESWiFKWGdrtUIEBiEkoQlBCKSnMAhkxkcrSbXRQGR8/GIRL5dBYSlLwY58P3snyuwfz7I3A/04pusDZNACrclksojo3VWhCbHCvYDEi1OmUtEIC4TRBFKiVwT2xqObRMIJsBZjbfTmZYlIZU2k1WdswAlrsUISCosWggDBRQPvLIccX1jkjWXD61V4p9LgYrVFrdlEaE0x69Of72OonGWoz2cwJ8maFiUBRSwqDJNO01ZjhCCQkjktaXo+DSG4WGky2wxYarZYrCxjDOSEx3zV40JTc2pOcjxn2DVSZvtQgUkJWU8lHngSFRES9w+cHWA62oi9eQDfmG4eCWfB6AAhBUK4lwLHnWzDSMrJyPKJbLtQQU3AkrXMa8PrFcvRCzVePHmOc9UGNelhsjmsVChjyJkWo315Ng6UGSkPMD4gGe2HPgXDwCBOBaZnqQaqwJkQKhaWDVxctJydr3B2bp6ZpSqBFSAyBA1DWG/it5oMenD7zo0c2TXB7rxmLKsoSkHO4tSt7QR94n5Iq0+LSFDI5HOD891NxHCRN2Zdj1uhnOFtwY/UCdZiTIhFEHgeNeA88GrN8t2fX+S1hTozTUtoBdVaFd2sMZb3uWV8hL0bR9gzABuykpJU+FLhK8hIp64yuA84JhC045gh0LLRX6CpoaUNTRNSt5Yz8w3eOF/hpbMXmVpuUbM+5PooFHIMZhVjKuDILSPcvbHMJE7V5qxTtyLGqSVuQhkgDEAprIzfgO3qJcSNz3A3iUrt7EjbFTYSwkma0DrvT3uSCvBO3fDS7DJHL1T4j4stpqqaACj6GTaN9bO93M/2jGBnf4lbhnJsyzspFndKoqotTp0ZC1ImITWjHTIhpEAK5zxa4QqQnsSQwQLTnsc2X7ClKDgdGk4FktenLdOVBhcWqpzzLHU1y1LQ4s7BMnuKGcaVY2pPOKazJpHnkR1hELb9+nIi7/tGp5tHwiVxgMhZ0E66WenghAZQR6AFLAAn6iFHzzd49vhZXr8whykMIFSOnFIMZxR37Rng7s1FtgBDOMO9AGStdZq5S1JYY9ChxvO8hPvD0KKUYzhXS1enCIVB46aIV50AACAASURBVHggFA7Lm8dJ3DdDyw9fWuCN8xVmaw0CDCKsM5qX3LNrI3dP9HOgP8OQhBKCjHZ4H9IipOsHa43rB+E57C7G725wEXcTMRzoCJCQFghNdAaMkVSVYMkTLAM/Wwr4wel5Xjkzw2y1jjWaohFsHx7h9k0j3DmeZWufR7+SjslI2Wbxm40xSCxKuEU1bTJtRyWKWojoe/fKrPiXFk7V1nBg8pKFaivkzBIcm27wo7dOc7ZWw/qCvmKWrYP9vGd8gAe3FNmGoGQhB3gRegcQWPda0YznI5NYhr3hGe5dVKmr8fnKDrMRSKoReAjX6SaMZrgglBLjCRaAH51f5JnpKq/M1riwXEMYw8a+HO8dL3Pr8AD7+gvsKyvKWKTWIAXSOttIKpfKiQARvTM0nYvRFiVt9ebe8epShl04VKTqDVaDkOBLKOLssn4BmazHZAaGckUymRGenVrgtbk6Z2stFswSVQ0ibHLvWIn9xUwSj/ViuNiCVO2kAhvp1HbQ7caka8hwKxkoPeO7uyA9kO0AQTqALZKxc8a5SCSLjWwqYQVGeTR9wRzwRqXO116/yBuVBi2gz/MYyXjcOlri/7h1kj2eYgA38JnQIEyYwPvWCJCOyaSQEerQBptFguqnqXsdRbofXOWNcbLHExYFZCKmjOOs+/oEpb5R8sUs+s2LvL7UohoaTswt01qsoY0lu3OYHcJFReLVGEoKlFVJ/ax1ALG9wZG46y7hLjXfbKSeOvMqOrMe2tm9caAnwqqEh1WSpu9RAZ46N8fX3rrIqSpUW5aisBwYKvKBrYPcvXGADZ6ijFNNflyWBRkNlIu295KuaRI9zgguJVE83z0nDr+l11h5OOYfBf63sRJbcz5PvrPESxcWmak1Oa1yfPtklYW65f/aN0zJi6OpLn3AxYCjsJdw0PCNnjNyA3ip6RSb+He722zXJ7nD8zBKUAFeqLb4ycUKL89UqNocJT/LroECH9xS5N7xEjuyHgqLh43wLeG8S1RHpN9aE6UJpSWzW56DUFG4KV7/JWNRG+GCzrGwxiKUSiaSjoOjtCMlDpiWSCPICBiS0CcE2YE8rS2SgpQ8d26J0/WQtxebKDT7hnxyo31sz3guA8XayGSTaARWyIgJV9cqV0vpyXatpOYNwHCppgjb07RLVGn0MUJglAu6v1MP+N7JOY7NVqkDeWm5ZajM+7aM8v5Jjy0SPCwZ3CDJyB0QQjjMAZ3EXq2JDSPRfjAxcznlpa1BCafcrAkRMk5AstjoPfBKqUQlh1qjlEQKgSGIpJAHEcMqIyhK1/SygPuGsuRRWO1RnZpnutHkQqPFj07NUlRQGh9gBEnOOOdJqSgN1ToTxnZW/Zema20RXneGu3xlL92kOK83plb0EcDbVcuPzjf50emLnK7VKeULHOgf4v4tZe4e9xiVzvvMESs+Z2CbKBAuMVhCLBqDRapMZBFp0tmzNjLJpQUl/PZGENZvt8GCkB4Rr6HRhFiE5xESAiGeYwkcRCyRKgpbRV6ojGCeI0OKPr+IyUiem5rlQmWeZ6c0mb4C+YEB7snCiAEvBCXdx5ooY+aK+vzK6Vrbg9eV4S5XWdERvEnB5dHv2PxNW3YCh7ktAkenKzx1/CIXagGhyDBaLPC+Lf3cvSHPVg/yNipdiMgWlFEGhohKFygkLhGtrdY7zf52TUQ8oCLKUlF0Xi8iKYiL+yLc8sR41SxIjDXOn+x4170rNwdgIC8FlHxmNyuaQZ1n6lWWteE/LlTJqzk27Rqk6AsK1tmHwjjsLx3iuhZ0PZyP68Rwl69qjF05ipVll9NgU2iXaDv8TQuvN+C5C4v8fGoaUSoyWS6wb7jEXWN5tvuSnAUvgqVCXNZuU0hspNBcHQQ5FJ6NTXBXF9VV//R6Kuds2CRDhTgKINutMhFMoqJyJQ6gdbJNRvHPNuxihJsYvrUo7Rho0BO8tyxZGM8zXy/z5pLhwvwyP6ud4/BInqHRPBMZIHSeb/Yaq9LrRTeADQe9vNNeV8Tw5pI2/OTtGm8uSGyuTKnZ4MhIng/vGWHQc2rKx816Y6EZIf1xJm8M9GZwjoPUyjF3HCTttiNFvFynPQFitapNiDUGT2aSevqxE2EtzWaAVBIv4xjOCmhhqSEIorLibOCmMWSCgKxSZPApA3ePl5AZj//nJ1NUQknD9/nx6xco6SGKE2UynlPFHjdFZOtaMtzq4Ef7//SV3RCDSH1PXR2BuzEkMq/h+FzAy+cXOL3UIJfJc2C4zF0b+tnrSQYAH4uMFqMaIZgJQn7wzhSLWpIvFOjPeAxlMozlMmwrCAoeCO3iodZaTCKx2jiuxklKoGNnEisFCJlkbcSGQmLmKQlKEUYMNq9hqi6YamoWGnXq1WVsvcLOiWH2bxjG84xL6sTQh2ASQaM/z5Ftg3Cqwsz8Mq9drDIxXGBsosxWC3lx86QpXWcJ11412WkXdXeK6Loq3iekbbgbXGjo+GKT/zi3xJnlZaqhZaRU4u5bJrh1RDGEjdB8Exn6igZwutbiiReOc6ap6B8dZTSfY6JcYucgLG1QjGUleSkpC5AmitFGHKVxmSAtnHccaVG0cU6ulF5i+HtEx2jben7Gp2GhYiyzRnN8Ad6Ys5yqNjk/N8/83HlqM6f58J172LBhmILvR3FSTQaPvIANUvAre4eoBgE/nJ5hhpBXlppsWIChMgyKONoskp78xej6M+saqNQICSeOL19adcYmffqXxjkK88Ari/M8P3WelsoyMJBj83Cevf2CrZ4LwPuECVM0gLMteGvZUikMc0FYzoaKbK1FXzDHc5VFvn1OsHdsiIMTZQ7lYVCBUY7RbFTGtHBOSmBcYKLSgmodyn2QU5E6EzCASy2KVb/COQLnAnjhYovvvXOaEzXDgshRM5JAh5Ap4g1s4ITs49UmlDKQE5CNNrTJ4EJhewScKivOjGR5vSF4fX6B0km4c98EJuPRGde5cWmNbLg42yNlIHXFHONDK0AS4bpyGTgJvFELOLm0TCsj2DzWz/7NfUxkBSUgZy2CAItACwdCVJqGC8uGZZmn4gtqMotSoHQL2WqRE4JTZpFzjZCFgRzb+rJkfcX8coP5ao35VpMFqVg2TtJZJVhuQrMl6CtIlDQIo8kgKVlDWUn6C3mG+vLklSKo1TkxU+PodJWfLrS4KDM0swqrDUr6+DlJTgnOao+3F1rcOuJhlUhsRGkhDwwL2Dvcx8mtIxx/Z5rpapNT81XO1UMmMx45B2Pf8Hbc9WG4HhC1SORW78Qth5B1WnKkVNiygVdr8HZdULUK37TYXpbcMZalDwecqgTj8tCRJG2GluWmpaEVTeERegXIeQS6gWlVaUhJbanBzOIys6UBdo70U877TM1UOXVxhouVCibjE0pJE7c+1SDAk3jSQwcBphmQUR7ShOSVYmJomI1jklI2w8LFKqenZzldrzNbGqReKGM9H1pNl5AgDFYKZgPBhcU64WAfUsmkE5wDZMkB28s5bp8c5QfnKsxUNZUmvDVXZbOv6C/4ic+T+P6pRCDnEactvXdHHq6BhLu6hsWSUOBCNuAYcTHUHD2xyKkFQ7Y4wCbRYr8v2Y1TWyGaFiE+MkLznVQ1VkCoUNrDCxVND0RWIqQPXh5jBS3hMYfmxarhrcY8Slha2tIgS9A3gpVgpCBEoOPQlJBYIRDSIDI2ApItFWC2CW+cW8KTgjDUtPwidb9MkCkgtMRqg1QeQmiE0QRG0GgJgpZIVHGCPUe/i8A4sCsj2N5XptLwaDVbHH39LJMiZPu2MeeZp/tSGwcI+zdOhPU6M1wvjCFFPYMMIlHAcY7GMnAxsByfqXGh0mQwn+GW4RK7SwVGiGEFEf3v1rxbK5BCoIMWzUYLaRU5lSFQWXQYoBUgM9jQYKRHU8JFEyBC7eA/qZBe1hltwroliSIGcKNPFIGXNo5iRhJZuxAXGoRUiIwE4WOsciv8CF3TjUFYgxQ+xliazRbSFh2fxTF5YZNpl0Uy6En2jg8w3bBMXaxzvtrgXD1knvayw3YkV2JFWm+8+7RGNtxlGK8LtLTRL4MgBOYtnG0aZpohS80WI9kc+8ZH2Nafc16pBS/ZG669H6YAMAZrQywW5Xv4vkcrbLgH+QobCpAui1cr6VDXpL7pxTqi7bp2DaBO/xQWpJ+6LIpiGOlc2yhkYU3oAvvWklUST4ASpr3Bk7DtxxGv1hdklWTfRJ6Ts8tcPKOpS49poziHW/XfF5vIgFQCG21P8Yv6rdea1lDW2mTe9aJU/i7xDhwaB0fMVA1nZls0dIAVITnPsGNAsTELRRtnw8aNiSFQJ3UGB/JMbCpDRlO1TRoiguYVDuyVHtYKFx3oWBYT78ykV2lOvFtIGi1Of0KgCSJwrRANpNdCyKY7rqwLgkpB2Kox2OcxOTGC8BymhwcBhhaaEEOIh0GSE7ArC5tzlpywNK3k7JLixDw09ErHS6RDaFc8VteP1oTh4jhiEs7qDlZGg2RTCit2IlrA9HKdszOLhBiK+QzDfRmGsw4G8bBIY5HaOBUFLnYqnM2Vz8PAkEfgGRq6iaYVDbTL1hAqWrJvklwUJ+VEev/duMIy9TMtCdMwTlyGTZWhQWikskgRQchSguc50LjVpJSHiVGJUG6iuY5wmy629yFxanMIGM96DPdlMX6GqWrAWzNN6tokU1bjwoGdS7ki+/NdVLHXkOFSs7tL89g2FEr3HmbtoerEkWI50wCma1WmFmbBBoyUckwMlimIKCZqcfuNmBBrXCwg3vEoki00haaJRosQTBAxm/u4da4yiWg46q5nipGS3/GwdqeIpj5WttWwCx+4XQHi1T9WgZVunxJlyEbrc2zcjdbBIs5Tdwc9IqYrZJgYKiHyPhfqdU7Oz1E3LjHAChefTe+E1yHd0tVcY1pDlZraqK+LLGklapMhDHCLjGdbTWaWlgkaVQaLHpMj/WSUwsYBJ6WxvsV4Cg00ae+CdGJec/SdBjWAXJTZ22w5w0vkMEHE6r6PG8rY1+uuayxzQ+KNvCQhkgCJjnzqXpsd+mA9sBCG2rGs50Ua10IgyGSKVBo5zsxGKekiapb18PDwkWQw+LSnwWCxwNjwACYrmQ5rTNWWqUWZKOlpkq7RjUBrBotYLKLXlqJdDkP6sMZ5qIuhpR4ESGUZygrGyxIv1szxSuEoZSjEElpoCcEM8OrcMi+dnqUhLV7OI5QSmgahBEJJjNaRPaXcaAPJlgrdQyWihdii59mUJCflYMi22LKt9jErIs3rI5VleqHBm8IynS8zURBkZDtd3FrrQBfRjl4M5yWjgz7hWcNSGFIxmhpukua76hYDTR16pSdCcP1pzSRcl7lGlCGdkuyWdtaY654Qt6yuikRbRdZKBj3BSM6tto84DpBYK6MZ7UprWngzhJcWq7y9uEhDCBf3FDICVC2eiWSAtW0mS1RdjNtHTCRo/xUdTeloQ9Jam1bJkXQ3kSrH2W5IDyt9QpFlplLjjakLvL7Y4EIITeXUYqxaifBFD8dQQxkYKgowIaGxhCiqpp0R0z0ZevvXa09rAotcqrGxLOlcxRApMAuLFurGYWI5FINSJdibSEqXyYomcEH25cDys9N1Xq8Kan39WJnFagGhRvoKpCG0Uf6HNZ3OqEhxVEelUzi+iGZNz5amKZpZSdJU9F0qUAptBDoAyHAxaPHTkxcZUYMMbShTFpDFIlPRmXgKlHBrIbJG4BkfqT2WKpZ6Bqz/7jPWarQmEi7eRqrXcKTlQPffloW5Kiy1BNpIZGDpMy5IngWnonW0fRfOMxVC0AQuBppXLsxzphbQyhcwMos1AqGNW4dqDda2EjWaXrDVXn6awt5ipyLx+qSTUiLtEK3wljp9KaGIV9YmYl5ahJfBZopUyfDqhQXertRYwDlMWpg2JodbQ+tZSwG3BiIvPDIorIbqcoNaUyeuzEoJnLSQdgZp1LYeu673cIN+abouDNdRwZTHBURwARGCbt1PS+fAWncutLBcg2rTZWrY0JDRLgUpQeONU8ZuSy6nUuYsnK5rzi4ssdjUWJlFCK9dtrEI7f4iXP6ZiOKX7Vcoxao2zXRt77aNwXUzXq9hskkfqGTqRW6RDVGexMtmCb0cU3XN6YbmIo7h2jZwu2+FdYuCckKQVQqpJNpalptNamFAQMpZiAWxTdVFpD6rDV70I/3vWrDcdVOpsapcKdXirhB0Rv5im8m6DQB9iY/n3HshsUohjEwYw4LbSlW5MuI9egPgbDXkxFwdY7NkZJaW9aLlfb5bz0p7IbJRYIXGGre1Q0zpmWgSWzFFovtLt5neo080CE+glMKYVmQ3SsKWRRjwRQay/Zyv53lzHib7cRBOpFTT5I5aECEIjZaWmrA0I989xuxWxwaujBJT+RrRdcj4dTMhng9xdmwHWiBS89U6dWtIhF/UyZEcsLgguZBYEWAj19/gjOo42B/jdnVgthkyvRwS4iFFxhnrQmAxaCHbVYhBrkQMRExI9xYPPdqarMezHYfbjkw3A0qEjCSiNRH3tT1sDQRCUFc5ZluScxVDo0+4jGJI9SeJ7yIR+J6H52uQEFhLYG3Xyt70pI9LuQL3wabNjFjC/fIKcU1W3l/qTIwYxPiRhwDPc40NLcaIKARpsaaFtTphOI2Jlt4p4k0ONLDcClloBITIaKWWs/KcdjTt3ZFizzPlTZpI5diOegraa2a7JFq3Y9Gxej86GXmsTq1bdKgd08koIiGdbA2w1IRgrqWZrzUIbI7eaZXRgiIBGS+DUiEi2u/Y2K4EsLRjbSHRPeJqhv5aWXDv6rrUzjNxk9KJ5RYHllrj4gZKhKiow9zmfxpFiE8OHxEtioF6q8XiUp1QF0A5CMKoOGSlMXGnWwU2m9hkMbO1w1vp2qUcgStqUqS0UwF/hcRajU7EVWS8S4sVlsBojA8LYYOZuqFl4i2nVxkoC1aH2MBgBEitUZiOVWYifXFizrx76UrXjeGuFPeJ/QXHYDZJAzNEe60pB/JKYRDCYKXpCCrZaAMcgUg2CmyGIfVmC20LUUpRzES2LVUskU6ObUmZYjYbOQLxAJnYaHQt6ma6hB9tqsHR3vzJSWfYJ7cqr12+tK5FymCEoGFDaq1mu1iTFpxt5WiAVssQtjR4Ck+qaFeAtPffNl8slnhN46rjssqJawWzXDuGS3rSqZ8rYbT4bzqOaqMtVY2wCCkoZCDnSaQwWGFcJCG6TyGjXA2RMKAAjNGENsBIjY0ZLHlAyhvumBZpD44Us8XHoQN3SzNdWhLaWILEtYnLjuVqVJbycS6OjvRgZGJIiQ0hjN88AmCs2wtFpGWtez9FM9SEBqRS5P2cyzymncOyknocvcxgXStmg3dlXWonfOCGot0kxzyOBT0JgyXoy2ikDjFWJ0F5Bfi47eTTToMBjLRo1UTLFlq2IickWhZjFS62mWa8tEKPpE0CLkAbGjHR/T18NxuviI7vj9pq/ai9Tp1H3kqUoaLaS+etyxmWxnQmqkDK0Yq3inBttoAWLuskk8lSLOTJZ/xUgtal6Gr8z2vnp15XldphT4vuM9F368JRbnV6vPLB7VruC8FAFnJKY3SAFpKqECxFJchU8ld6ZX5GWLKeBRu4wZSR5EmM/lg1RnWxOlXHiPkS3Comm2K0dIg8dT5ehh8VJojf6RWdk7HBHknS2FuSCiEEnnGbJOaAgue5l58A8TpEE8VyBdJlwSi3GWNo3Mq4UlFRyLSZLXHCo7Y5Hym235zx0lNQr6C0VfjL0XVhuPSeIKtfs/K7iNSNiBhQAWUgLzRWa3QmR8X4zGrQChdpMBaU6zoFZBCUM4qhvI9Xp80fiXqLOy9moK5aWeGkmOgO4IsUQ67CbKnWCOtaYNMvYEvec2/BhKnrfaTVeNrgNTWDeY/RYgE/tYuTwO1ZooUDjpeA2dAQWIvWGmtD+gqWguw0FDrcgxUedPvb5aXhtVGs7/rqCheQTqvUNnbn4RiuLAQ5L4P2Csw2MpxdcFvTp1FNgcXHhXwmS33sGhmlgBflf/tgfIRRUVgrnS0Xq1qQRiGNjzSeU4U2ziMWnXagTH/Sdl88dG43OmM9pPWRJoO0PtGmdO6ZsSSMtvsSxkdpj3wIm4o5to+UyKRA7jg9VSNpAFNNw8nZJk2tUcqSFS6+mmvX+BqyybWj689wPVstkvdkkZy2UeinfVO8WmnAz1DM5zEqx3TNcnZRu3Rq0mW7DQdzWLb0FdgzXKZg3PuvCHFRChvnNEU5tCJe7hxVJNok0Em57ijvJboqaWNk2XfIl8i1ibMiNU6VJlsxubqjLTLUFIKQTTnYNSQpKqfC42VFzjtXNBCcX65zem4Jg6GUyzJUyJEXoiO6IISNBGt3ZLWj49aUrh3DXW5KdZyPBiP9flMbqdQIJ4mZLwcM5rIMl0to5TNdCzi7WKXZFTxzCwtdjHGDkuwo5xj2BH1Gk9MBvrERM8VvMk1cwPZ3a9w2Wx0D04MskU1oe49hIu2c9W9jyZcOkQjR3mOLEGGaZHSTIanZWoDtWSiI9GZmAoNMoinT1TpTc4tIYxkp5pko91GQ7QSJdgppr/b0nkBX0PJfmt51lRqTMLrDM3P2mPs73NfHpuENkMlyYbnK6Zk5tDEdlXeqWeHhMkkGpeTAxAg7B3L02zoqbDl7SnrRc6SLw4YBggDpWZAOdDEmABGAisBfoyHUTgpZ4T4GCF0MVCLaoxSrWRmCDDAqABXieZD1fBS+e3GDxtXFVxA0UKbKQDZk74YSO0o5hminYNmoRwxuMXYTmGsGTFeq0GgwmvWZ7O8jJzs20O+iWN13pviTesb1ZjZYc4Zri0CXKWKTUKSwKTAyQhdiphspZpkYLeL7ksAaloOQM0sh88aZaAacVIzUoQT6PcXdm0ocKAv6wyp9UuNjMGG03b6UiZSx1kbRDI1QBuFFUEVs3wkQSiKjGC/aYLWOghHRIApBB5Cb2HcaY5vooI5uhUgrUCoToS8B6BY+ASXbZDwT8t6tBXYNZcmSgjaswGiLNpYm7uUi55qGxUaIH4RsycPuISgqkUg1sUKidS15TJ1ZS3p394eLJp2AJAskPc3ifTVGcrCxLOlTlrznoIBXpxtszij6+n23plNHqU4CrBSUFBwa9Li4KDk7E6AICDQ0jcTmUkF0z4cwwIaBCyRE7z6w8auOhADhIZTD/HRgMFZjhUAme5yaVHti+CXC2mzkYYcGjMLLZPB9z5URtlC6xaBpssk37O3PcnhTgc2ZODZMMiF1aMEXNC280YCTTUEdQQnD1qJhT9HZuytl1NW6DjY9NNec3l2VKi/RpEhQ+Lg3+W3xBWMZQb8HOmzxxvQcby/XmMNt49WwlsA4FZikYQP3Tg7xkQMb6W/MkqnOUVIGzyGmTrUZEH4WWchjCDGm5daoGvceiHgDaKMh0BptmlhfQN7H+AIjNSa1cxxGOPUbhKBdRojIesi+Al4xH21SWEMoQ1aF9IdVBhdmuGfQ51f3TzDmK7K4TF8Rr0m1kFWKvJQEoeXn5xqcqQtUsY9+BePWMB61+Rcd0N6AybWnd1HCxQazWHVSxhZHDhjyBHvHy8wFTWZmFzmpmxxv9HELsAkoSeveoRrdG7/4dpsnCceKnL9lkPzFFieW60irqUqPUAqskilpFnuZ1jGkjBIro4UziVccx2TBvYJJGxCqfW8C9lpcZjERyOshbIgyAX4rJGfqbBQBd28Z5P7JAW4tKkq4/e3aq8CiIZIOyFnQlrenl5iqNCh6PjvGRtlWKlImnXbvaGW39p7ga8Vs8G4yXNzKjha2cRIhYkjAUZ+nuGNzmXNLFaan6syEWd6uGd7WMKAsZele++OsKJvEE8sItnuS/7RvE+VShR++Ps+ZVpPpoEVFKrT0CcNo6Y3KOgYzbTzN4XGh+y1lFGg37hWSQPKSehGDEVG+S+yl6hBM0+1hYiRZIC9CimGdUdHi1oEsjxzYym0lj0HiRYoGrCaOuhjp0uanLZyshZxfXGZpqcZwOccdm8fZPpwjh12x7WqnA92JCHSOw/VmszbdGHv8djNfasqJ0I1lQcG+DLyeNbzqWZa9HG/NS8ZOhhzYquL3dtB+6yDYaPvDErADKEyU2J73eOrEEkfPL3BiqUHN9tPMFwmVjwldJgUqi8xIkkKbxkEYnoiOGQiCSNq51VdZP4vWEIYBaIOQCum5WKcUAcoGKEIyzRoDosWtQwWObBrjzvESO7OKYZyEcuwr8VBIGxAIQ4CDQl6bD3n+ZI1mU1LAY9RX7Bvx2Fzo9GgvLeUuPxT/C6pUkdq7zCb7XySayF0SOYgWD0EB2ADsLBXYsWGYVyqKs/M1XhGSE4ODDPYrhmR7jxERpSEKnErOACUlGBwuUAxhQxFerrQ4XpecaTVYaNSxQmKEj5EhwsuCjN9CE0kubR2UEr2xze0JjMtC1hobWggNylo8q5FGE4Y1VNiioGC44DPWX2BXscidg3kOjZTYnvdd/ZxPEL3yMn7tuGO/OjAFvFyp8vLZaZr1kMmBIrdu6mciL8lDAg63GSaOk16GxVIcer2ZDa7zy93STeiU4m0G62ikEB2LhwQgPLchXx738t1dg/0cmvQ4/cYcpxdqnLYh/zGVY0gVKJQlOdqJmO0HO0BY4t5rdc9Yga1jBfbULT89vcxLU3Ocbi5h/QJ1G1ILm7RsQEtlCYQfvQDVtr3W6JVJnpKYICQMQwLdAmvxraUgIIvBC5uoRpWCbDGa89k2WGLvRD/7R3z2R681z9i2rRqjKbExIUQGI6ACvAq8WFninYVZlPTZMzrMe7f3U/QgThpIMHViab8SHFkxXKLr+3WmNZVwl3K108BjOpNMRclLGQR9KPYWfRqjef7jHUVFeTRDy9MnzjNcHGG8PMAgTq5looUn8UYwHgZt3fZCfcpjC4JyTrBjS5EPTWaZqo1wfDZgarnFhWboNn1u1ajgQWkQLX2MjqRcH7u6WwAADUBJREFU6Gqsoz1CpBQgFdIE/H/VnVmTHMd1hb9cqnqdnsY0ZgEwQ2EACQBBm6Qg2VLIshkhh3+EX/wX5Cf/IT3a7w496EEMOmjBQVgEYFAUMAQgzIrZl16qqzLTDzeruwcEHeFFdE9GDKJ7Ahj0VN3KvPeec8+p+JxZHZivaK5Wa6xUmtya09y4ZOkYS8samkYw4vIhKIPMISIAwNjlGsV+4fjlk10ebJ+RNyvMU3Cn4blblcJoBMWp8ZWcwE/+5zflj7D+/4sGJO8qZfNKEULF2FmZ4NEeUjxtnbDaSPjxjUv0OODZ9gnrheLBbo/Llxr8qJVQQ1GEceCWx5NB3J5NEE25moL5qiYj5bCecjPJ2ckqbBaORwPHZ9undA8yCpfJFDwRi1UK5YUJMkrsg0MHT72iWF2ocbdhuF0xXE8tq7OGa0Ycp4VpFMYtvrJYJ0SkTL5ZoMgVbBSBRzsZT7ZP2Drucbmhubc8z3uLDS4xDtq3Rc3kCfJtN3i/aX1rAfdm+7Gczhwn+vK67COdg1kC4EOcOlC0jeUvVlvs9fpsbR/QNwmP9wekL4658t1ZavWEBioiFQLquxD9D6IJb/CQekgTyZ0s0JxNuEbCAjILuzYIqGOHy4sofmOlCaxNVFwKEScN0jxWHmsN85dr3JqzfN9Ky6YD1ANYF1uPCjIfCCPsM+7r0gEf4aUHwOe7GZ++POGwl2N9YKFS4ae3l7lVsSSEEeP5fESpiT/fBma97Rtvv0//12sqqtQ3ZyfL16p8p7RsSxFKqgPvAB9carK1PM+Dw0P2Bmc83vP8sy4YLM9yr12jBRgvrQlFAGMJKo7hGKKj8vkb0gVe9Dyf/HaTtTMFyQxaaZxz4Ifoutgn+SJIY9dolLVYm0CRcdzt8+Dha9rfbfHO9SbXGDvflCsA2qhRLa3JBI/FjEhT+x4+O4Nfb/R4uL5HUeTcubrAX95c4KYVuYs6k0KM59e0qpl/C040//Xzot7yd772TkHJLJF8Tlodd9s1zlbnOEoCXx4cs3VyxP3hgGbFMtusccdCojV48RJVqBEzGCAE4WCoIC7QHtjrOZ5tdXm1m3EUKhRNYZcIZCaK48EX0iez0c4ohMgu1xTestft8eVml9Wq5r35KrbMDSRnGKNecUhhJFWBEsVP4Iuu59fPT/l8+5gTF1hoNvnBYoufLFZY0FAPjhSPwooBsAdrxifHf+9WfXsH7lTscN+83ugoxTaZCvLBV+oaluu8NobMD1nbOmE9K7j/uke16Ujn4HrF0LRJlJEZH+CSLwUIedT8kIDb2j/j2atjcpNASCiKgE7USB5VUAmZdldJKlzKocN5jzEGnVQIyrNx0OcLP2AwexVdS+T4JRa5BagUdIizslgKNN2gOVDwu67nNztd7j9f56Bf0Gk1eX+pzZ/P13g3lYdNB48KTo7gAM6rkXXmNK8pD7g3lhn36pLYPuloxV9dqZKdVjk7SNj0CQ+Puux/+Qded5r89TstfjhboQrUEINejSZzHh8KGlYS9TJvWj8+5un2DsPmEiatYLSN/2cuqEEZNcYIjWnoIA9UmjMEYJhnFEZxMMjY6Tl6IYiJW8F59a8iiFSFghzDEMWegt8cwycv9/n81Q6HwaOSQKdS8NFqgw/nUmYRkN6iR7Wo1np0EEz7ujABN2oKK0myk1gIVJXiujb8dKmNyz2/3OrzojvkWX6GGuYEHPnyLO9fqtGRA0hGCksFJMS+u2yh9EPgrMjJwoTkQ7SjlHM1uuIqC7mojqs0wRuDL3JcCDhr6BtNj4K8/OwmHstRCSkEKAIIGw82c8/nhwM+3ujxcOeQ3W5GmljuLDX4ybU2d9sJi0AjqicJKcUQVEApF/1Xy5Cb3tC7IAEXq1gvs6pKC5KgcaKPpjTfbzdpNOpsZVt4ehwNh2yddvk4LzgeOPS786w2U2pYqgEqRlGZaECPZtKtxaQVXPBiTakEoy1pSuemHB2YpIK2KcPcSRGBB6NxicbZsmnCaFjKKVHpdFbRD4oTAqdB8WAv45OXJ/z21Wv6QXG5MUOn4vnoOx3+ZmWOOaAaJH8NTsYKpeQt7VMmO3rTuy5IwAEElPUT7zQJejRKNwSuJ5q/+5NFbm13+fTVEV/sH7JRFJwd9tn4910+XGlzb6XBu0ZM2BwClsfYiXOtThxidBwvVBNj70pLZu6DUJBUIkEYgKKQ+20N6IKCnIHPKRU5S3a5VKGKAYodBb8fKv51LePJZpfNgx5ZH+ZnavzpQpuf3ahzs12lxYRFeVliB2FIKzM5gTrdwQYXKOBU2UUP4zl9hRZuW/xqG3i/aqktNagphamlPN4/Zeu0R7evONGn7GVDduqB25frXK9VZcdA8rcCyH1gWIiZh9I6GsrHLa3wItFQjpcqg/cQXDT/MEpsqPGjz+kY+00USo7QQ+Dp8YDfn/R4cpTzaAM29vto77iz2OGDpQYfLtX5sJMyh8RxyQAOsWKWaa8SbpOd/4/fRfvfrwsTcGOVhRLsV+PusIt24wFSC7erltp3WlTaLazSPO71IdVs7Z6yt73Li6biR99bYLBa4cB5KkqRG5kXGARFH0OhDUHLtKsyWuhIhRtVq2iN8iHSjhj7WMa9TBmLsposYqEQOHVwqhXrvYxPXx3yeH2fzYM+Qz1DzRiutqt8dGeRHy5Zblakz1YjUA2T10Cqg2CERhWKYRRCKo/UacIVvr4uSMBJA8u5IVqrc+4qk2lLSSCuIY3hxgzcvjvPo/kqv/rdNi+yM87QPM8a7Dzr8fGrV8wZz53VDt+7NkMbGNZr0GySoSQvMwVapwRlxLfKeUrVI68CJJF5l8cK1hD7fgk+ga41bAA7TvEfe46H67s839snDwmDnsxMdHSPezcX+fGtBW5WLUt2jLXKDfL4wqGCAWXGAgAaVFJy72Dagw0uTMDJ0gityYcxD0K6FGGUyCs8Nmhm0DSBxZpm6WqLajbgcafOV/3A2pFj/WjIC5/Trmp27SEvhjlzqWHtcEhhUpxJCcoKquDkDJVGrxNdYF3298uJn3ijHRAMOiT0c8eDzVO+0p7tk4wvT+Hp6xP2jvvMVgNXZpvcWJ7jThXuLbe4O5MwC5FMGTARuhp5zU7Msvq4wZuRypOs6Q43UGHSVHNqV3l2iqCNOAWmsbqMwVcGXPAojCCpuYhfZhaOFDz18Nme51/WXvP8sMtZ4bEJZFmfbDgkqdYYqoS+TujW2gx1VczRhkOU1Sir8W44kSopCT4fIKnKe+fA56RuwFwYsmoybPeYfrfLoNLAJxXSxHLJGN5bmefP3mnzgyYjZfYakAShl4eYPoi/xeQ8fVnkRGcI5ePQTalZML1hd6F2OAFuzOhIVfESl/PzCrBj6i8oGT1IPcwZuKthoaP5oNHh5WmLtf0+z3b3WDvrsdMbkLmAq7UIJqXwMU8yBryV/pk01OIOR4Q94kcbcco0SiUoHFmRsXHWpT7o0SDnqs1YXZjl9tXL3GhVWKqnzCUy7FPiotF8k0BJMX97u0MjFbY0YmS3nVb8dHJdoB0OzmtYjScwS704gb8ZC3SPROPCSGXLachQ7Hn4w+mQp4fHvDzp8qqXszmssO8shwXsZIFuEOKANobYzEd7j1UKZaSi9fFLKlaZtU1DoGlhLvF0Ko4rlZxrqWO5knDj0iw3Ls2wUrUjupL2seiJ0gzjJo2MI5biZKqkR5VXRTH63UECcHr3NlkXJODGFCaYyJHjXlDIS4CJeU5VWurJThHCuc0iU4oeiiOkitwBnuzDVwcD1g9P2Dg4Za+fkQHVWh2lFN55rBd/Px8CWhtc/NHWWLRzIrelFZ1GlaudJteXZrnRUVxPhG3cBpqEEYNEBwEvVFAEHeITU+IeBaWYs4rMt3O/uxorlivK3XG6Q+5CBVy5i41lO+QmeQ1BecaXP0CQSlGjo2IS0hvTAaVEzTzD0Ef8EPrAmYOzIjDIC4rC0Q2eEw9nueX1YZfjbpdKmrCzu8Ph8TEr11ao1epUtKXdqNOqKVqpp6WgbgwVq0kTS9VCU8mxKfMVgukm+OgmrSNjJBIL4u+icYSYpY68dsL4qQlv8VmY9oC7YDlcuSZ6cKHc3MoSQsQFfWwUe8LI+6U0IxGUVMX5T4G4ZoBFA94oqCQkJBSIudyRg4MadDNLrVHnnz77FWv37/O3P/97llcuQ14wU01pRcp3gzGCMUQ8T0WgJ2CVxqgx+bSMjzdDRz6pZkxOnSiOxleBr6cZ090auSAB95Y+U/yWCvHmBRXDJ4ivAxoXA8sphVUjYpL8jOBiZiSpdomllrevBIxqQEPDldkUTUoN+MWjf+PhP/6CO//wcz5oaE5JR7YmNkzmUoFkYpcqfBj1EUUAx0xYfIWJ/qIeB+TolWbsgDO5fDyCz1ex07ouSMCBPPMTF9ZyPg7RaFVmMhHWnLj4YyU4mW2QWxPO7QduxEaJAIYTNCtNxqq9CWCCuFCnoVTdPMc8msT2cbFFo4DUjI+8Elt1MbW0E/Qi+ffiMVECed80tzB+TDwXoU79T6ch0OIBjIxXAAAAAElFTkSuQmCC;" vertex="1" parent="WIyWlLk6GJQsqaUBKTNV-1">
          <mxGeometry x="296.43" y="160" width="87.14" height="82.12" as="geometry" />
        </mxCell>
        <mxCell id="u5dyA5r-_2eAr6q3dXi0-11" value="" style="edgeStyle=orthogonalEdgeStyle;rounded=0;orthogonalLoop=1;jettySize=auto;html=1;" edge="1" parent="WIyWlLk6GJQsqaUBKTNV-1" source="u5dyA5r-_2eAr6q3dXi0-8" target="u5dyA5r-_2eAr6q3dXi0-9">
          <mxGeometry relative="1" as="geometry" />
        </mxCell>
        <mxCell id="u5dyA5r-_2eAr6q3dXi0-8" value="" style="shape=image;verticalLabelPosition=bottom;labelBackgroundColor=default;verticalAlign=top;aspect=fixed;imageAspect=0;image=data:image/png,iVBORw0KGgoAAAANSUhEUgAAAKoAAACPCAYAAABqF0AHAAAgAElEQVR4nOy9aYwdx3nv/avq7rOf2ffhvoqiRFE0KcmWZEW6lhHbcXJhZ0Hea8dInC+BPwQBAgN5kcUfAiT5FNwXN06CwHAM5yYQ4kWSY9OCrIWWbclauUikZXHTDJcZzj5nztrdVe+H6urT5/AMSTmx5GHmIQ7PmV6qq6v+/ez1tNBaa9ZpnX7BSb7XHVindboRWgfqOq0JWgfqOq0JWgfqOq0Jcm/koKS9JYS45nGh7yOlRLpuvE1rjRDimue2t2PPWY3svmv1TWtNEAQ4joOU8rrbk/s7tbnavVzrHrXWBL6PkxgTpRRhGOK67nXHMzkO7de4kXlpP6bddr7RuXmn83ite1xtfq853zdi9V8PDFopVOLCUgjocNEbGczr9eF64NVaE4YBUjoIIdFatey3x7S3p7VGqRDHaT67YRgipTTnKAUdAHojk6aVMse1AUwIAdH4CcdpaTMJqqvGR2tE2wN2vbFVUR+S9xuGIY7jXLV9tYdxtevZMRdC4iTu40bHp6W/YWiuHbVj6YZEv+10+83EgxANtlbKTGw0iJ2e3uTvZBs3QmEYxv3pRMlJUSoEmgNlz02CJAnaMAxRSsX7DHAVWivzOwyhrf+2zU79SF5HOk7Lg9sylkqhEue199OSBVrymGsB6ao+Je7Pjodts73vne6rExdP3qtpW3VkAteidmyFq2DihjhqO1lxJlcRnZ1ETHKfbeNnpU7tJ7mf+TtAKYXnpTr2/3oiVymFIyVKWxHmvSPu0M6VgiBAK4XreTd0nv1tSQhBGIbxfssJryeSb3Scb1SVuvq+fJRSuK6HlPIqKdCpDaUUKGXwk+Cc17r2NXXUjsiOGhBSIlqeHtki7Vd72pM30kmHsfuTwGvXJ681+LH6IVtFaadjrkVSSiPqETiObOXAYWjuv60/yWu1T7yUEh2d3xFQHVQLMJzUjkM7EFbjbtfTI+3Y2vYsN5TSvbbK0WHsjIpl7i8Mw5Y5veZDEo3vtdpO0g0ZU50667rNU62INDqhXhWk9m9zE2GsP3ZS+LVS6GjArciyQG0HgeUwycmLdcu2Ce30hF89+JLWBzABSK0JlcKJ9MskJUHVfr1r6cZA3KZIGKHX0hvbuaulpN7Z6X7B2BDJ/Y4jCENBh1u6qh+dxl4IN2Y87cynfXzb+5ts51rzdE3RfyNPVJKaRkzzmKT116njndrvdN0wUrKdNiU7SUopwiDA9bzrP9HXoNXOVUqh7EREYPb9BlLKFiMMoNFo4DhOywOttfE2eG3iv9MEJSfQAmA1L4U9PjnO79SISbazGjivul4QxOqf1Wvt/LSPYad2wjCM1aHrqTHvWEctl8u8/vrrfPvb32Zubg7P8wiCgAceeICHH36Ynp6eluOTBortMEoZ1g9oHSKEE01I01o3+xRoHesxy8vLvPbaa7z44ovMzMxw1113GdAAu2+5hdHRUYrFouGIkXHXbj3+Z8hyVBGLzBCt6ej+suCamZnh+eefZ8uWLbzvfe9DSsmxY8d466232LNnDxs3bqSrq6vZfhslDaCOKkzEBq1hJKWMjEkVc9ZGo8Hk5CQvvPACr732WiQBm9fyfZ/h4WF+67d+i23btrUwFQsc22bywQvDsOnh0RoS6smNSVXd0s9rMUa3vYHVBsU2eurUKb71rW/x5S9/mStXrpDJZKhUKiwsLDA6Osq+ffvo6upqEw2trD+0YBWCMFS4blO8CqETqotAJfq0srLC4cOH+eY3v8ny8jJBEJDNZnGkpNjVRX9/f1OPBUiI4WuJsE597WQMtEqKAK11R2PNqka+7zMxMcG//uu/8uCDD3LnnXcipYxBUygUGBgYiIHacdyjcUqCx05u4qQW1ScJVDDc/dSpU3z1q1/liSeeIJvNkk6nY269vLzM+Pg4IyMjZLNZNm7c2NIfkRizZP9c122OU+JBvZ6hqrVu0buT4508ruVaq7bYRpVymWPHj/ONb3yds2fP8qUvfYmdO3eitWZpaYlvf/vbfPGLX+R3f/d3OXjwIL29vauKjaSvTcpU86lxW0ViJ1Ffr9f5wz/8Qz7+8Y+Tz+fNjWpNNpeLRaoVk+1trfbbcoz27dcSNo7jcT1mLaUknU4zODhIV1dXPCkf/vCHeeCBB0ilUnie1zJ57eR63lVc9VrqjxXBSfXC3svu3bsZGxvj93//99mwYQONRgOtFDOzs5w6dYonn3wSgE996lOk0+mW/iQ5aZJuVMWwWFhNdRFC4Pv+qqqLey2dMTmApVKJJ598kuXlZe67717uvfdeisVifOzCwgLLy8s899xzpFIpHnjgAYQQzMzM8Oqrr/KDH/yAmZkZRkdH+djHPsbevXvJZrMxlz579ix9fX2ceP11jh89ipdKcdttt3H33Xeza9cu3njjDR599FGeffZZLl68SG9vL7/0S7/E8uIil6en2bx5M2NjY3iex8WLF3n22Wc5evQofX19bN++nQ0bNhCGITt27GBwcJDjx4/TaDTo7+9n8+bNZLNZqtUqzz33HNlslp07dzI0NMRbb73FG2+8AcCbb75JqVTi13/917ntttvx/QZPPPEEJ06cYGZ6Gum63Hrrrdx9113sufVWjh49yte+9jVeeOEF5uZmcV2HD33oYZaWlrh06RJbtmxhdHSUTCZDuVzmySef5JlnnkFrzZYtWzh06BD33HMPqVSKarXKsWPHqFQqNBoNzp07x8TEBFpr7rrrLg4cOMCWLVuMY3wVl2GhUKC7u5vbbruthYvv3LWLQqHA4cOHmZubY2VlBc8z7qZatcqPnn+eV199lYnJSdCaBx98kA9/+MPk83kqlQqXLl1icnIS3/dZWVnhxRdfJJvNsm/fPh566CG6u7vjPszMzHDs2DGOHDnSgodbbrmFQqGwKtBdC8jVyIqS2bk5XnrpJe644w4+8YlfJ5fLAU1L9+DBg6TTab71rW+xsLAQ7zt27BiPPPII3/nOd5ienmZ0dJQgCHBdl/3796OU4vjx43znO99hbGyMl19+meeee44gCDhw4AAzMzN86lOf4q233uLZZ5/lzTff5Py5czQaDTZt3sxPTp3ixRdf5GMf+xiFQoFsNssrr7zCv/3bv/H000+zfft2du/ezcaNG0mn03ziE5+gu7ub73//+5RKJfbu3cvg4CDZbJZSqcRjjz3GwMAA2WyWvr4+3njjDf7lX/6FVCrFq6++iu/7HDx4kMHBQS5dusSjjz7KD3/4Qy5fvky9Xud973sfS0tLDI+McP78eZ5//nnefPNNlpeXGRsb46677uall17i6aef5ld/9VfJ5XJorTl+/DiPPPIIjzzyCKlUip07d3LhwgUGBwfZs2cP9XqdI0eOcP78eer1OhOTE/zk1E9YWVnh2LFjfOYzn2FkZCQW6Z3mVGtNo9FgaWmpBaiWGRWLRVzXJQiCWNc9e+4chw8f5sknn+TUqVM0Gg2mpqYYGBjg4MGDrKyscPLkSb72ta8hpcTzPP7jP/4DIQQPPPAAY2Nj7N+/n3Q6je/7HD9+nH//93/n8ccfZ2pqipGRERqNBp/85Cc5cOBA3J935Ee1YmZufp63336bMAzo6elhYGCgRRmWUtLV1cXBgwfZvXs3xWKRWq3GSy+9xLe+9S3m5ub453/+Z0ZHRzl58iT/+I//SBAEFItFNm7cSCaTQSnFhQsX+PSnP83f/93fcfrsWR555BEOHz7MBz7wAR588EE2bNjA//e//zc7du7kN37jN9i9excXJifjvlYqFS5evMjXv/519u/fz5/8yZ8wNDTEo48+yhNPPMGdd96J53k4joPjOHieRyqVIp1OA1Cr1cjn8+Ryufj+hBDkcjn6+/v5y7/8S+699166u7v57ne/y1NPPcWePXv49Kc/zdatW7l8+TKPPvooL774Ig8//DD33HMPruvyf//lX7j77rv5f/7X/2JoaIjXXnuNTCZDNpulXq9z4sQJ/uqv/orR0VEef/xxdu7cybPPPsv3v/99vvnNbwKwdetWCoUCs7OzOI7Dn/7pnzLQP8Brr73G//m7/8NLL73EwYMH2bx5cyz223VxCyTLZCz5vs/U1BTT09MxZ5NScvToUZ566ikA/t8/+RPu2L+fM6dP8+hjj/E3f/M3/Pmf/zmbN28mDEO++93vsmfPHj73uc/x+c9/PpaiTz75JKlUijvuuIMf/ehHPP7448zOzvKVr3yFoaEhTpw4wT/90z+hlKKnp4cNGzaQSl2t97cAdTUVoF6rUavV6O7uYWhoKGbRFqR2ELLZLNlsFoBSqcSZM2eQUnLgwAHe//73093dTX9/fyxiTpw4waZNm3BdF8dxYu6xc/duxjZs4LXXXmNqagqA7u5uNm3aRF9/P+Pj42zZsoVsNofrOrHVPTc3x8WLF3Fdl7179/LBD34QgPe9731MTk6SSqVa9D3r9E76Z+1+x3Fwou2u6zI0NMTevXsZGxsDYPv27Ugpuf3229mxY0e87eTJk5w9e5ZarUaxWGTLli0MDQ4yNj4eGyn2IQjDkHK5zOLiIkopduzYwYc+9CGy2SxBEHDlyhVef/11brnllvi6uVyO3t5ebr/tdvr7+0mn0zz66KNIR1KpVFruLzmvQggmJyc5duwYFy9epLu7GyFE7LXRWvOBD3yA97///TGQX3/9dY4ePcpDDz3Eww8/TG9fH7t37+bsuXNcunSJpaUlVlZWAOjp6WHnzp0cOnSIrVu30tXVRbVa5fnnn2diYoIdO3Zw+vRphBDccccd3HPPPXR1ddHb28uTTz7J/Pw8J06cYHh4uDNQV3MjtPtCHcehWCy2PI3t5yb/bjQaXLlyhaGhoZiTWcDde++9vPXWW5w5cyYWM57nsWfPnlifcRyHkZERNm/eTD6fx/d9SqUSjUaDeqNBtVKhmM+jVZNTzM7OcvHiRTZu3Mj4+Hjcl82bN3P33Xdz5swZfN9vudekmHQif2AygcM+jIODgy1GzP79+7njjju4cuVKJG2MO2pxcTEW541GA9/3aYQhtVqNWq1KJpMFdOxfLpVK1Ot1du7cybZt2+IHfXx8nEOHDvHKK68wPT1NpVKJ3UhJrpnL5di2bRuDA4NXift2xjM/P8+xY8c4e/YsruvSaDQol8tks1nuv/9+/vqv/5o777wTgGq1ytTUFBcvXkQIwcTkJCvlcjw+/f39VCoVFhcXcRyHffv2cffdd7N169YYuPv27ePIkSOx/TIzMxPjwRpNfX193HfffZw+fZqzZ892nB/oIPo7+cBc18V1XRYXF5mammJlZYVcLmf0GBuNcBySZnCpVGJmZgYppbEuExGjkZERZmdnAeOX9X0/5hRJbl2v1+P9YCxZASjfJ4x8pDo6NpVKMTs7y4ULFwiCoOWeqtUqy8vL8Y1bIFpwxdEepfA8D89LIaXE933CMCSdTjM6Otqi11UqFZ577jn++I//mNOnT5PNZgnDkFwux/79+wmCIH4IatVqFLZ04jHwPI9MJkO1WmV6epp6vY6UzXF3HId8Pk93d3es34VhSF9fH5s2bbrKem53qwFxcMEaxbt372bDhg389m//Nls2b2Zqepqvf/3rzMzMsHv3bjZv3hy3oZSiWCxSKpX4/Oc/T71ej/2d8/Pz9PT0cNttt9HT04PneQwPD9Pb2xvPnR8E+L6PHwQEQUC1WmVhYSEe1yQQBwYGmJqa6igNLF3X6hdCUCwW6erqYmVlhYWFBcrlcpOzCoET+dPm5+Y4evQomzZtolgsks/nY7Ug6S+r1Wr4vk8+n8eJVIcgCEin0zGnaA/DWTdUGIYomrF46zO0k2It0aQ7xW6fm5trCTtay9YC23C45RiQMpECl/QhKqX48Y9/zFNPPcWuXbu4/fbbGRwcRCnFuXPn8DwvVmfstZKhVR0luljRm8lkIhWqOfZ2vGq1GmEYxm1aDt8JpO3UHqpMpVLkczn27dtHT08PmyLOfPjwYSYnJ3nzzTfZt28f+Xw+DgoMDg6yd+9eM1dRe/bBve+++8hmsywtLdFoNGjUaibZRAhUGFKpVCgtL+P7fmwLOI5DJpOJ+2zHPwiCawO1fUOnJzOfzzM4OEhfX1+se3Z3d8cDDHD58mVeffVVnnnmGT788MPcf//9jIyMcOXKFZaWlmIwVCoVTp8+TalUYsuWLaQzGYiAlrymNXjsJGutUVoTRNzQcZw4z9NybavHvvHG61Qqlbgt3/epVCqxmmFB4/s+tVoNokS7UqnEuXPnyGQy0SCahBSlNPV6PfZR1ut1XnnlFU6cOMEf/dEf8dBDD8UPxj/8wz9w5MiRGKRSSlKpVMuDp0IdP1yFQoG+vj5qtRqlUgnf9/E8j+XlZaampqjX67iuSyaTwXVdKpVK1OcmAO24XU/02/stLS/HEcQ777yTY8eO8eKLL/LMM8+QTqc5cOBAHP4dHx/ns5/9LHfddVcLs6lWq+RyOaampown5vx5JnfsYKVSoVAoUK1WmZ2dRWtFOp0in88zNDTE0tISy8vLcV+r1Srnz5+nXC4zPj6+6kN3zXzU5CCMjY3x0Y9+lPn5eb785S/HotvSE088wRe/+EX6+vrYuGkTjuvS19fH5OQkzzzzDKVSCYBLly/xzLPm7127dgEQRKE53/djQNsnzH4sJ3QT4TYb27ZP6PDwMKOjo5w+fZpTp06ytLQEwLFjx3jssccol8ukUim01pTLZc6ePctPf/pTstk8AKdPn+aFF15gcvJCJKICgsDHcST5fB7PdeO8VAtCqxYB/PCHP+Tll1/m8tRlyuUyjUYj7rvVScHowtYNlMlkyGQynDx5klOnTsV9fvPNN/ne977H2NgYmzdvxnUcGo1GrFIkuXun7XYMLVmObCVRku677z4+/vGPc/ToUV599dVYhdm4cSOFQoHvfe97vH7iRIyJv/3bv+UTn/gEhw8fplwuI4TgpZde4vjx4yxFKtaVCMBbt25j06bN5HI5RkZGOHPmDI899lhshJ0/f57Dhw+zsrLC/v37OxpSEBlT10qKsFQsFnnggQeo1+s899xzfOELXyCbzcbO6JWVFXbt3s39H/wg4+PjSCE4ePAgU1NTHDlyhL/4i78gDEPq9ToDAwPce++97N69G9d1qdVqVKvVlshFEOk49tsq8b7vU6/XTdKHENRqNRYWFggC4zrL5XLs2XMrzz//Aq++epQDB+5kbm6WsbExhDCcN5vNct999zE/P89zzz3HxYsX2bp1K41Gg40bNzM8PBz7esPQcI8gCFCRCpLOZNi1a1fsavvqV7/KyMgIGzZsQKMp5AvUarVY3C4tLfH000/jOA6/8rGP4Uc6WxAE5HI5tm/fzkc/+lFOnTrF5z73OYaGhlhcXERKyf/8n78W+5trtVoMfgt6C1S7PUnJCGC5XG6RMmCSqYXjsHXLFkrLyxw+fJjXXnuN7du3c//993PHHXdQKpX4wQ9+wN///d+TTqVYKpVYWFhgw4YNDA0NGbtBCHbu3EmpVOKrX/kKs3NzLC4uUigUePDBB7n11ltJp9McPHiQiYkJnn76af7sz/4MpRTlcpmRkRHe//73s3PHjlWB6nzhC1/4gr2ZTnF5S9ZXOjw8TLVa5atf/SpPPfVULDb27dvH7/3e73HP3XeTyWTQQH9/P4VCgcuXL/ONb3yDI0eOUKlU+MxnPsNHPvIRhoaGEEJw7tw5VlZWYvdPNpvF930mJyep1WrcfvvtDAwMUK/XOXPmDOPj4+zatYue3l7Onj3L9PQ0t99+O1u2bKG/v59sNstLL73E4cPfodGo09fXH1mjmk2bNrFlyxY2bdpEqVTi5Zdfjp/orVu3smfPLdxxxx1x7PvixYvMzc2xc+dORkdHyefzCCFIp9OUy2W+8Y1v8Mwzz3DhwgXuueceRkZG6O/vZ9euXYyOjgLGzTMxMUGtVuPQoUMsLS8zPz/PrbfeyqZNmxgZGWHHjh0cPXqUr3zlK7Gf9cEHH+STn/wkvb291Ot1zp8/TzabZcOGDWzYsIF0Ok2lUuHcuXMMDg6ybds2+vv7WzKYrIpz4cIFSqUSPT09HDhwgEKhYPRkKZGOQ8rzmJyYoBapGrt376a/v5+BgQEmJyc5cuQIjz72GMePH+fQoUP8wR/8AYcOHYrbbjQapFIpLkxM8I1vfpNqtcrdd9/Nr/3arzEyMoIQgp6eHvL5PNPT0zEearUan/3sZ3n44YcZGh5ucRW2YFEbugqoq2WyBEFAKXqqrLgBYgs1n8/H59vMneXlZZaWlmKluquri2KxGDvay+Uy1Wo1FoPWaCiVSlSrVbq7u/FcFz8IKJfLsdPadd343Gw2G3sigJjLp1Ipvvvd7/KDH/yArVu3xskhYJJc5ufn40HOZrMxF8zlcqRSKVZWViiXy3F/bfKH1Xvn5+djvbK3tzf2KmSz2djiXlhYoNFo4HkefX191Ot1qtWqUSe85sqBhYUF5ufnAchms3R1Fenq6o7T6FZWVuL+ZdJppOPEbjtrpFgjzqpGTiTqrW4rhKCrq6sloQSIk1OSc+Q4DkEQsLiwwErkfdFax/7PdDrN1NQUL774Ik888QQHDxzgl3/5l6nUariuGxvhScO2VquxsrJirhUEpDyP7q4uioUCXjq9an5IDNRO1A5aFYY4qyQnWEq2tVqiRXL/9Y5JHitMp1q3Jf4ul8u89dZbfOc734ldaLVajcXFRfL5PL/yK7/CbbfdFrtRbuia7dlMnbKX/hOktUkSl9dor5OlD2atmmzrXzK5xi66hKuTSt7JPF2LLl26xI9//GMef/xxPvKRj/Cbv/mbVx1jxwy45rh1YpiWXLj+IrFkuFQEQbzst1Pj9tikJXqtDBura11voDoBpr39er3O6dOn+dKXvsS5c+fI5XI0Gg0eeughfud3fodDhw4ZtaTNSu40MMl7aD/2en1dbQxXO2a1dUPt9weggoAwSjaWbfPWfqx0HELfXzXn0x77TjKg2s91XZdCocDIyEgsTRuNRux6S/atHaTWYE5KlfYVCvH12tnpatGpd7L9em6S67V5I9TpXOtYvnLlSovDPZfL0d3dHcew3ymQOtG1+vtO278eo0ge807Pa2/j5zHmNsKVy+Vi3/k77fP1+vYzrUJdy3Q9Dr9Ov5j0366kzzpI1yb9twPqOq1NWgfqOq0JWgfqOq0JWgfqOq0JWgfqOq0JWgfqOq0JWgfqOq0JWgfqOq0JWgfqOq0JWgfqOq0JWgfqOq0JWgfqOq0JWgfqOq0JWgfqOq0JWgfqOq0JWgfqOq0JWgfqOq0JWgfqOq0JWgfqOq0J+pleiPbfi5JrH9/L9VbXW4N5c68FuymAqjtMoiA5te2TGC3nbTlNtP3UbceLxPd/jnSyDy07WvvQoQp/y1+i/VcnLN8k+L0pgAqr8z3d9hHRR17vxJjsm5blagf8THSjkFck+64Q6Ojb3okAEoUdflEEwH8x/bfRUe2Eq5j/mhfVIuKXkHc+UUvD6f6Lqx+0ctLE5du/MRKj+ZAZsDZP6lD89ias1LB2OWpHMZcowdPGTiRJDERTL5QBoRARh0q2nTxftO5atQM3xsREp7/aASo06Ij7i6g+FCBi3tJWecWqK6J1l7hJ2OraBWobGQ1SR//Llu12qpJiNETFItQc7XAVaKAj8trVCasUrFK4iCbXi1FImwLS2rBobmhyUAHaab1oW//aH52bA6KGbgqgtuuk8fbIOLFmkKQpxSPBjxD2fI3QSSDZL7HqjKu2tq+mdvGcbL/DGRrDSSPuKOJzI2BrQIlmsy2qqY64qkqoCVaOrH3I3hRAtdSRq+nmPoQBr5l+gbZvsY5mPuZcIuFHWLUEkEBGpTCTZpZuObzJIlseGZ3Ylzw+YeFp0c6vpTk8ibs2DOr4ejpSfW4OkMJNBtSOlJT3YLiQBIGD5as6ErEt3AuBRraIeEsJ6HRUE5o8VEbHJRVQlTgpTJzbitim0BdN1ULSqmy3YVAkvm8OeDZpDQM1Mfmx37ODgaPaNisioMomByUpOom2W/am4yZEEjQ6Ui3adEaj/zYvKWP9Eq6GTwTUmE1ae14R4kQ8XsdgddpPj9WEVp9q0zS8eeC6RoHaCk7d4qJpc4PHHCiCjrT7dLRLxCDUut1K1sYjoJswktaD2eacbQ86XOWMjyl6AQRtDSSeKBXDTBKDN8GtRUukopWl34wghTULVGjyLsOV/ISmaCWkgBaDw5ABhHGTG8GcsKs7km2vRTtI7myzt9xrtGXJQNOJFA+NRCEjXtw0hBwUXuL4pAnWGgqANhfbTUZrGKiQnKymsykBkoSbxx6VBKrAQSORkXiNmXTiXBFtsMZYiwGO4XSKpjFuL2mfj6ZRRsub+bQQsYbqRI+N0WjDqD/m7Gu8AYGmNyHi88mLdfi5lmmNA7XpfpFNbdAwuavUVW24l2jqmoZUdH5nnqrNCbGKqaU5wwca0acO+Aj8sNVmM6cY0LkSpBBx/+zHReABKVwkIY421nqSO9poWvywJO8/1n0TT5ClmwSksKaBKjDdN5BwIv4I1tamVVQLgSMdQjQBGk2Ig0IicDrE8QWgosAVAgLMx4KzBpSBK8CK/b0A9QCDHwVSmtdU6hC6CtCbhyzQA3QDacCLvh0gZeHrRx2IYhBaQ6gN2JuU0GkMI25qQ/Zp+K95ccsvBK1RoF4t5qwzX2rrNxcJoCZAGGPSOKRMaDKMYC5QIpEXEIX5A2AJmKsFzFVqzNbqzNfqzDd8FrWk5khqocvCsqQRSrSMru8IhAjRQUAuA91ZSAlFQWj6haA3m6Uvk2Ywk2E0LxkQgqwA6TYdAdZclAk92Lx2wXJRjQojbFpwq5uPra5RoLZS7D9MRKJIzmW0UUfms4yAqgkj3U6AMGpBHcOUGkBZQyVULPqayw24sFRhYm6Ri4tLTC+tsFipEyqJki5IF4WLigDvSInSylxDBwhM5EvoEKlDcp7LcG8Po0n/VxsAACAASURBVF29bOzTbO1NMZ51GPCgyxHkHEGaiDEKgWvfNKIjfVsb618DQaiRDgjrGkZHqs/N4/Rfu29FudFeR/aGToDWRH0CY4JpkHiAwBeCMgas88AbNThxqcJPp+a50qixEgbUA8VypY7W4AmJDBQ0fEQY4EmJUAFCKxwpCVUYvWkvg680fqiQnkegBXWATIp0OkPWzZAF+tIptvbm2L+5m73dsFEaVSEDpLQ2kjySGGFIrBooAisfIuVBRlq4fUHv2gfqTcFRO5JlJrL5Z0waQi1ASLSQBAhCBCXgYh3OL61werHETyqC88s+l5YqzFfLBELgeh4pN0NPNk9/IctARpPWPhkV0ucIUoQIQhwkWinDXV2P5RCWAk2Aw1JDMFsLmanXWKz5XCmXkaGk4Glm6prpapW3iprd3Sl29hbZnE8xIETsnpJax/dlVJUQdIgQdnNbFOImoLXLUROkO6hkop3lJv5UgB9olCMIhWBFwILWXKqFnFoIOfr2FG9cvMJioNBeBplKE6oAz3Xoyqbpy+cYKnYx0pNj0wB0eVAARgTkaNoylgJgEZgNoVyHuRpMl0LeXlhkammZpapPEHqEoSD0AxrlJXJuyKb+PIe2j7J/sMCOgkuPIykCad3kMEorQhogVGQ/CaNmCAmk2h12a5ZuGqBaA8gaHc3kYtU8CAW4aCQNwBewhOA08MpsmdcmFji31GC+2qDRqCPrdbJCMVQscNvGzewYyjJSUHQJQUE4ZByJ5xrQpASkIFIims4GiQGqDzQ0BBp8DVUFK2FIqEPKdcXpec0bE1d48/IM88ql4Xk4mRT5jGQgK9jTl+XhPaPsltAP5BWkfHBCjfJ07JMLlQ8SHCkRuDcNUNeo6LfPVgTCOFYqOhxl8+ON/zSMdFEFTPmak6UaP5pb5NhsibMLVebKPq6bZjhfZNtYH1sysDmXYudggY1FQb80XDNDE4TNAAKx4z3hFYuOARuL1WiUA8pz0DjUsrAhpdnkdrOj1+G0djmzDBNLPueXV7hYVsw1GtSoMjM8wIH+LjZLSLnRXQUCIUE71sDSN4kJ1aQ1ylEttzTOQ60FOhG4NEa9deyEcX4UuNQQrKBZ1oJjsw2em1zkR2+fZ7rhg5fGEy6jhQK3DPVwaGs/t3YJNmKAmU58XEjkryYo0o2NVU7sg9WYtEDT+zB2qtmAgRYCH8Es8KaCly/5vPp2ifNLy5SDOkLXcKtzHNg8xv/YvY1DBZeNnlEFvDo42nRKO6BECEJHsa6bg6PeJECNvNvN9Ce0MJEoQQA4BEgqQIDgEvC9CXhhcpafzsyyrBoIQoYzae4aH+HgSJ49PS49nkNeNoEZZQjGvnipNTowPk7Z1Dk66szxjoi9ishiDzFqQQA0hIiDCaVAc6mqOL4IL719mdcvX2bFA1fASDbLB8bGuG9TF3d2uQxoyEW+1NCBgBAlQtJ4ka689oG6RkV/kqJkjEhJtW6oZrqGg0LQQOADby7Xef5ShR/Nad5cWGGx3qCQddkx2M3BkSL39Hazt+gw4kQpetokMdsQrc0niNtPABQAbfOxor5ojYG1bvHv6ihFUApIyWYTGQ29wJgrGC869Kahz+2lr6D40ZUVLq9UqC3XcMU8Nb9BeSTL/aNdeK5AKpt/IBCJIG4r6bbv63HcTnzs3Qf+mgWqTsS4hY15x6K1mXpiPKbGP3oZ+P7kCodPzjHnQt1R9BfTbCp43L+5lwfGutgC9GlIKY0UEdfWRnUIExEuo14I42jX9qpW3VBRP+wky8gWNyfGrwePfKGWQ7sk8hQ0FAVsS0H/aJ7RwQzl4xdJO7DSCLiyUuLHyyWWF4r059PQlaFLmnY8ZKwIJbm7SIJUWE3WPkQi3tVCon3je8Od16zo1zE4oiH2leFUUhBKUMKm7mnqSM6Emv/7RokXLle4UKqi1DJjfVn2j/Xy4HiRWwppBhxBEcgo8LCJ1CFaK5Rw0UJYvhjzIYdrAFXY/5pBd2NPNUFrM68gikJZ/TZqzRdQEbAAXKwHPD+1wPMXZjk9U6ba0PSm0+zt6+LBnf3cM1KkGyhiAgUC8zBYfVlobRIYvBBEGD3IJksiTtO5CqhNFStxx/+56fsZaI1y1LbQYMQYLER0lNlpl4Ncqtd5ZbrGy1MrnC4rhCsZS+e4c7jABzd2caCYZhhI6xCBjNLurIj/GaI7CS5klzELRMt6J0Hrt/kdeSfipdKClAaU4dyFtIs70kUaTRg4nFuosuSHHJ1ZIV3MkSsUOVAwPt2QyJcraC1dICNuHo+WxEJW2rtu6k0x6UQ62nvBU9coUHWcZ6J1JGKlRGmNUioyswQ1NGXg1StVnjs/z1QtRAuXgZzHncN93L+hwPuKaXqAtPZJxTw4ocG1gFTcWOjW9gltol/oKA9BxH0mBmVrkpOOORgIJUFLHKFJKUEoYFs6TXrDIBXfwWORs/NlFsOQYzM1sukKY1syFLJGn/YwxpeUNJErkyI+ul/RnpSdHIDmH++ly2uNAhWSznyTtOyghUA5zWlfUIIfLcCR6QYn5laoB7Chp5sD49382sYse4ouRRQyqBGiwXEBhVAKVIj2rNZ4dShS6Q5bG74BgivA98GRSHcVUZlYRyjiTQpFgMQ3qYrSuNQEDg4OWQz4RhzBx7f20usIvhdoXl2sMrFSwp2G8dwQzlCanVnj78gCjnVVhECoonxByz8lbnv/ROITb3hvNcQ1C9TYmS/MQg7j9WmuhF8BLtQ1R84v8MqVFRYDQcFR3NaX4oENOfYWHYYARwv8yKLxhUOAQEqBI2zGfcI3S3PKpLC6aYKkY5RMCUI6IEV8jFImAdqJ5XHzy2JAYJZwhziEwigMYaIP1kDqArocSTBcpB7CFMucK9eZXqnwwpmL9MgBejZ2042JmGmN6ZPWEbMW2KnXRHpz+w2uyjpbWO27RmsWqAAaFYn+iL8K40r3gSkfTi7UOX5xhguVBl25FNuLgntGMhzqciJxHy0DcdIEwiQ/19A4UpJBkKJ1/VOyCoCgab1Hsh5cFy1C0Apcz0x+0mpqWjXNfUmrXBgA+RFAAySNSFdOR9d0tAnVhsC2nEe4tZczoUtweZHZhUXevDTLYLfL0Gg3ex3IChMKcSNECmkUequBhwTmgdRti7/E9aD47gJ2TQPVLCAxOfs2S78OlICTs2WeP73IvAYn7TJWTPMrdwzx/p4Mg0Aeoxv6GmqiGY+vYcKrdYz1HEehaIr6IDA6p7hKK9DoQKG0wvVs1N+QdEFqQRhqExyQGDYrRMzOmiqAQwNBDeP8l9gsBXBVxMkd0+cBR/DRHV2IxjLPXqlRyeQ5Ot/A++kMwzv7KHgOIb6JYAkZKaxNcnDRhIQoZNI70XKUVROSSybe3cysNQvUFmtZGw4VAhUNZxpwfKbK6ZkFfCEY6Stw+3gvt/Xm2CggrzVexBdDaaJBx6fmeHN6EafYhZv2KKYcNmczjOc8+qI5iV3oUqCjZSp2UZ/UZgpDKVA4+FHhtRbbReh4DZZNiEYYV5rNCagAMyFcKvlcKpWZrVbw63WGMx73bh5lLOWQUk1/a0bALgeuDHZzZTHg1bkyF0tVctOSs+PdFLsd+mlZotjsT4usUNfgkdahlpAgV5tfP1das0A1ZNex2/XvgnKoOT4TcHK+ynyjRi6b4tb+PHdt7GJIQ05oswBZh1EuqsMC8MO3Z/n2y2cobBgjV8gzmE9za38XewaybCp65KQgKwUpIXAdcKJ6ZQEmWhUKw5EVrlkhoCLnu4zi8JiIUdpphmE9x/S8oc1qgmWtmKlrzpfgp9MV3pyaY3JhgerSAjuKaUZ6++geyOHYSJYGT0Fewi39ReZVltOVcywsLjNTrXFirsKA59CbcyM7Spl8AxtwiLzCMopk2eVWNybN313jag0D1YgfgcQRTZf0kgp47dIU58pLyLzLppTgrjzcnTHpcTKOYGlCoVlWcLIGE7KLxd4R5nQWWXeY8EPOLF7h+UnNxu4ct20cZ1efYMxtCj7LT5aAOQw3t4BdWAHPg2IWctHEpzUMi2bmVSrq86KAN1bg6MUVTl6eY6riU8Kl7qZpdI2iRZ4Zx+cn8zWGsmm255047yAdGXWjHuztEezs76YaakK/yrEzb7PBHWXrpiHyQCoMEUqhU6l4BJO65rXtKGvUqWse9fOiNQrU5pAakW9cMQsaJiqCiVKZ2VqVgVya28YHuK0vzyiRXhobMA5aC6rA5SpM6wxL6W4ajkcoHGSouRSEZOs+5+tVJv0rTJTz7OjL0p1xCX2flZUy5WqNuUbAnBbURJqGENSVoF73cBzIeiEpEeCGiowK6EuFFD2H7kyG/kKBRggXSnVeW1CcmF3h7aWAipAoz0UID2SKdAZKosHFcsCVms9o3iGHsejjEkPASEayf1M3C/UKpyfnuNRQnCn5XAAKGrKOjJezEKvGTce/aPFzrD7m65Gpd0KRw9qK3RowWYGfzvos+ApfafKew76NA2zp8Ui3+D2FUTC1INCaZV9Q0pKy5xF4aULpoByQrkeFgHJQ5/LFGS6Ua/y03M94b55aucL0zBzTC/MsVXyqOISpAtXQoaEE6VTOWPGBjwhreLqBRx3HqdOdTTHU082mIUm1pnh7rsLpZZ8ZLamli8h8yrinfAW+IJRpqq5kvq5Z9kPqGCNPEVn0GFdWUQr2D6WZmHaZCAMqOLxd1pxahPEu6ItWAJoQbSLur20ipEQkYhpJPVa8hyCFtQxUiPRM4/usAmfnljnx9jyNUNBTKDLWXWBzRjIAce2+OBIUgnCMJ6kehAQqxHEUvlAE0sT1Q+kQaI+69PDcDLUALk+VSV+pgAppBB512Y+f14RIQieFRqCUpCai/CXXBZ1G2JVZUjEj4XxF8trkClpJ6qFLJVWgLhyUo1G6buKejlEQFA61MGSpFlDzTWWqBsQgtV7RLmArcEs2zZmubt5WgjMLFfrOTfGBWwfQadeESGKsJf1jrSXWkxroexWNStLaBqqQKCJLGZio1Lgwv4QvNSMjvewa7aPPlaRorYSnMYBVwkSYNBqtfbT2cdwsUgqz+M/x0GhC6RJqQT1ULIehsZSEi5RptCdbKvlBNLEqKsImEqu3oiXZWiu01ujA+C+l8NAyjZYChE+USt0UAaFABZpavUEYNKtsaa0irurgRrpvN7C1t8CusWEmLy8yU/a5UKqxEGpq0Tg0S681wdmSlNIC5OYR7yWtWaAaL49JPikDFzRcqCsWGg0gZGPB5dbRPFm7ClXrFpEm3GgaJGTSEs9RqLBhqpsIU5nEnGiTUhy0NMaSHTUT5NHEeXnxuiyNlE0njkZE7WDakpF81cYkU/ELLVSzgzGGNOgAKRQZqUgLE0b1iCSDVmjhILU26/+BDT1Zdm9weXa6RCUIWAoE0w1Yzhkwm2ZN3Iuob7YmQnx9eK+x2UJrfj2tBmoKJpfhclVTUwEZ5bPRCdnuGINDtRzdLDymtQl7D3ZLegsOGQlBtYoKQqTjGHZr3QlKYRJI2z5axVEnqTVSR56FiKyHQOgIyEqbp0BhUB9ath4507XGDQROIBGhAB0iVI2cbLCtr8h4IRuv2UohcXEhNGmPEhPbH3FgYwEK6TQKh4WK4u0rATMrxiPhA0GoCIMQ/YuIyg60poFq4yRVpXl7vsZszcdJu/RmXYY8hwGaq0KtM0tojdY2X1QjhCCfgnTaZByFYYiy3nyrwsWZRqv3RGj7ENi6gqZ3AoWpH61ba6oqmmWHtPXI+ggdmGCAksgoWVXrEE/CyGCenkIm2m/yFAQSpUNsLa00IQU0fa5kqLdIMZej4SsmZpaZLlWpR2OGEAiRrKXaClTR9v1e05oEqp3rAOOaqgchE/MLzNdqpHJZRnvyDGS85kI8TVQMzQx7GJrldgoIMbpbLRT4eCjpImzJPutz1S2IvYrMNOuoTX3VPxvzabVhouLnIkzcSYiMSrghokUvWqCVC0Li5NLolMllUAqUjix2Yfik0AboDoqsdBjv7WKgmAcdcnF+nulKmRpRTMkROK6LEFcvABQk81M7gfXa4/HzoLWroyZ+15Ti4nyJuXKd0WKaTYMew8U0OYwoTEGctKzQBNJm6gtqgeL1qQbnFyW+V8SRrjGelE0gSVzN+m5Eaydapux6LCiWtKYAOsLEthAG5iFGxdAIlBaAByJDVQnemvPZnpIMdEm0Azk0HmEU2g3QWiNCD+FqshLGipL+tKLk15mulZmtF6nSXEmbUEze4ei/+7SGOaoBWwOT0ldqaKoNAMlQTxeDuWy8xNkh4RsUEi2d+LzpQPOTCwtcWq7ju1lCx+h1LZMXs5WE4WR/t3yig0X7J9Fc1I5ARyANQET6blymR8TiGS2R0qMSOpycWuLkcpkpoCrAF5pQqNhxb65lFvinJQznoT+lcFSNlUad+SBkCePaUlGnrJKSTI75RaQ1yVGTHKwKlEKBdtKoKMLS31WgO5MihW7mAwmb92MmswFMhfDWks/E3DJLYYagmLfZI1dfMG5HddietJ4SE55sJolv7GskQppJrZG6gWuUEgFoW57Hoarhp7OLjPZJxkeKFB0TmpXYeL1jvAiOh0bgChjMQJ8bkFY+vhAsCVP8bQDQOtLJaSb9mz4nAwGJm3iPMbwmgWpJARUflsoSxysgpEYo6PbMIj0TsWmOsVKKUJjVpD7w1tQSL55bxHdTuMKh4dcglU24h2L/wCrfzZrXTS00+iS5aALHrS8ESmQMaFuXQLecJwjQMqTqaBpOhjfmFcMTFbZvzNLvGc4fRiUuZMJDKjF5Bf0yJC18grRLWTrMk6jcwmqC3w7AexeJaqc1Kfpt1DkEynVNaSUg0MKWOaUgBVmi1DvddE85QqO1popZ1XmuXOOt6SVKgUY50qREycjPaddKabDh1lb53VRQ41f5cK2PjJqzxhmt+7QLykVoz/yO0k60CAhkQOBKGrkCb5d9TlycZzEM8TEmmI4XW7uEurk8qgjkVAhBAy2g1JDMlSGMss1tAWCicWpdj9zJWGpzW8Tbfv60JoEKzaGqNUJKlQYN30cpszY4o41bStMEmFHfHLQjqaCZBC40NLO+iZ83hGPSnWKOuMrqUwtaLeM5E1pE75yyHxKfZCDAuMS0TOq6xOeIlpcHG8tfixAtNaEj0JkcC42QtxeXmPFDyiSAqk2UrqFMITaI6gQohfYVSmnKVc3yCoTR+mytmgCIi1TH/U6MQZwWyFUejXeL1rToh2hBnAoIVR0IcKSxZxOaXwvUJFAPNadmfCYqEj9fJBApdCigEdq3QkRMs42rJHQ2odveokJUlj3JfGMGnDC+ZHOyk+qFUSEUSihjXIm4PmHcTigDREbS0B5n5ny2uh492eiNBaEi1AHaScWphj6A4+GmsiCih1AY5UBKgesRr45pfdna6t6A5ptl3t2XBa1JoCbhY4qPK4SrcVyz/j2p/9toZQwwwA81V1YC5hpQcVOEIgXCSSzTsFdon4om+qw6mfRciWgaYzuk5QCIfWTSWnb2wKYfw5QQMh5ec3y0ElYq0ArhQKAkU0sNFoppVLQ0GqkR2uTmatEMqLmpFJls3mAfES0u7HxnzV+mn7rj/s4j8/OmNQlUMINlYjka5Wik6yJcn+SiiyZIm4NrddtqoFgJNRUl0J6LcFJoJ8qxsgqb6KQZNacv5py6dU/MjK1hFJ8ScWpbGkVEKoEWmOiWxJTasYW0aB6niLisJESyuFJnpZ4hsItqhIMrohe96abjwXFdvFQaUa0hohCvSHZKmP/s+yvaAWhXAbRD+d2mNQlUC7YQ8IWiJkIaShOEJmJj098gwkV0jmW2odKUKw2q1dBkMDkO0jWizkR7zKIShJeYlWQt1rb+JA2Rq4wu0dyu4wwZA7o2FaGFwdoNqAjYArTCVcbwWizVKdf8KLoWLcXWCgeHjDA1XCtAGAT4jRpBo4Hv+wS+iqofXj2mnQB4Nee1awtWGYyfE61JoEJCQEkHKR0CbWorJCFiZ1y1cwOtKdca1HyNlilAmsV6mJpMV/PhSC+zqlvctG7ujplU4qDI4DK7ZNvJuqkORG83sXa0fT0b2r7M3IoGiRAuQmmqDZ9aECaSrKKnRYEbJeM4gB80qNUqOMLFtXUGWsz7SO2IOGsSe1eD9Eag/POhNQlUCwUHyLou+XQarSrm/UuOjNV9dFQyN2H12BeeV/wQH4l2U3E5IK2U4XTWPdUisqMJac0v5irxbuW+boLSitr45cLJKmjaNKqFBhnFi3TkmorFbsSocaK6rz5hqE2YF8uUlXlS0XEhNgn4vk+tXieTz1BMpch6Ekfalk2fTM5Bp4ow7R6P5HisOj0/F1qzQBWYzvekHAbzaTJCm+ih61AXJvXY1SFKuC0GONiiudCQLqGbihJJmlzTFDQToCLL17DuyItkXUu06Z+0WnmJfjZ/66Yb3Ur0WO6rRLXA5nVV8smQoHRIqBVC6BYdHLRJqRIhKlpdG2CqAYZSkHUkvQXJYI9xbDS72jRLWxWAXyzP5ZoFqo06dXnQm5WmJp02TvDlQFABssKJjzfDrkzSnRC4qTSOJ40lLYhr39t5k9Ys08ZxJLQ0CSNXoTOihHKZxLEVl9YH2TzKvCBNW0+AUDS1aKvPWv02KlQhIQxClA7JpQUZN/FOVyExpSRDQiGpA8tATTpoKQnrNXI06EuZPrW+3M/md8mo3zfALpMS5F2gtQtU45IkL6CQ0riYCiU1FXKloljKQa9jCtrKqAq0IkQJcISkN5+lWG2wWKuhXWM5h7G4Fwk+ZsBpQJxQCa7iptbFdLUrx3zbeqsWsjoOp8YCPI6GicTZloMbjqdVAyl8+gspilmvmYoXJbBoNEpr6sK8p7UkXZAOQa1COmjQTdPx0HqVJFTbR7uN3mWQwi8af3+HZDPaCxoynoPjCKp+wOTCClfKPjVsAUebeWpEb8YR7BjOMZ6VpGs1RBhEDCuKlesoBQ9MhUChUUI38dNxgqxwtxlJTT+kFaq2H8apaR4asxpFYor6S7shai+q8C8a5qMDhKqTlwGbhrsZKmTjxPDmA2EAX1dwoQyzNQftemQcSZcwYdU8JnJn+61ovpL9F5XWNFDBiIScEPTmMnRlMoDg8tIKVypVathKJgA6rqucc+CWXsHGtE+uvkJG++bN1JajCQMcw2kssFTzA8RpfQJM9Cjpa2pWbknaH03SzfPjKYhAatdP2XOEWdsktUmM9oIqBeps7UszXHBNDVRMt7SSUf0oA9SLCyGzNY12U/QWc/RmUuRolmAHovUHDjJ+J1WrWqMTn/eS1ihQm8PnAHkpGMvnGMxlcJXmytIKc7U6NYxRpRIxe0cbdWGHB9syigEZkNV1HMKmWigFOK7RH22uKNb3mfzbKqMRz4xlqYr3a5E8znYjEu9Rhr7xTamEQ7YVHhJwtSYVVMnrkAFPMF6Q9EqjAjkahBKg7EsmJI1QcXmpwny5gUilGO7rpT+Xayn6Zri+AbeMKvyJDpC4CqTJBY3vEq1RoIIZpBCNIiUdNhaLDEsXuVJhdrHMfNWnDlGGUXS8NnWnuoBB4LbuAgdG+8kpn6BRQWvfWM5SgYgSmlUIKkASIlQAYR3CiFfbeo66YbbZggFhgxaHfjyhkjgcoc3iQaE0MgyQYcO0H73XFBVE7iYPRAoBONUyW3sKHNi+hX7PJY1ZvWAwLUA58ZUCrZhaWGKh2sBLZRnt6aM3m8WhxWSjqWiIaI/9/GLR2gVqJBY1kHFgR79kPAduPaBSC5mqwyUNNcukcCLhb14vXgR292W4e1OR0ZQgGzYQQd2A1Fhg8YWEFe1xJlG0IjXwQQcgBcKVBlxCm4rTNrNfE6UmJdxOmIolQjSrSQslECrSbKWI8SKEg1CKtN9gEMWtvVn2D3fRIx28qEVrAOKYMhfLwHQdFioNKvU6jhCMDxYYKqTjV6vbNV7CGonJT3TfTR+FlQhWqujmg/gucdW1C1TAytqMhO1F2JBX5IQixGWyAj9ZhLo21erMSyPMFEk0aTQbM5J9oxn2DuTZ5AkKfhVpw6fWFhcuwkkbY0dIEC44XsTQffADhJQIz4uAqky6oBBRMqwm5mF2qYgQEVA9pEyBTGHzT4VVKRyBkBIHRaru09Xw2dOd486+DLdkBUUZZ6yaJ1Ga11bWBFxqwJmlkKqvEKEmI2GsL8VARpJGG31cY8p1tvuBaWog1tfQSgr7LsJ10X9DZISXtfyHgWFHkU9pwpTL24s1TkwsUg1CbHVPGxO33lAPGEk5fGTvAO8fTjFULZEvlxC1sqnBHwq0SKGcDEq5aO0BKfBy4GVBGo1P+yGq7kfxAolERDqn4TrScxFOZMLY2Q9BBZJAuQQ6hXZSaCFRYWjUiKAGfhW3ukK6UmZUaD60fZi7B7sZxbz5xFruWplSAXVhihhPLNU4Pb2EH2p6MhlG8lmGnOaqBxnb+VfDMAZr4tPZC/Xumldr0o8a+zUjsDqYidtQzLNttJ/Z2TrzVZ+JxRWm/S5GU0bUG31MmMz/0Bg/RUewJ+1Q2thDww954UqFy9UKtZQgwEVJGb1lLzJ+ZGSZK5VwRgqE0oZXaWF0SxWacxwZnRPrIM3Zd9yo5oRCuA46CEH5eFLhqpBU4JNtKHb3OXxgQzd3DeTZ6gmKulkqHQyzbwhTMWYJOL9S5dz0AqoRMtpfZOdoN12OE62vUkjrk7WrImxbbaiM3+yCfDddph1pTQI1NhgivmAXYmzq6+J25XGyepmFxTpzNZ+frPj0Z9JscgS5SD+VWhMqhYhq9fcC7+vPk85l8F+Z5CelgFmlmBcBNeUTRFEv4+xX5uVrKlIPXIGQIqpCHWl1ShuwOp5RFbS16CO9zomg4TgQREaTFAgRIHRAQYcUtU+v8BnMOPzStl7+x5ZuNgJd6GY5H6I1+tIUXFkGLgHnS1UuL5ZwXIdtPYPsHSuQcwFClA4szwd0TXryTQAAD0BJREFU/HaXFnUz+kPw7mbxX4vWJFCtKzyykQFj/Y5nBLt6XHrScMFTzAf/f3tn9hzHkZzxX1ZVzwnMAAMQBwmCpEiK0kpayqIl2drVxoYjtI/+D/zgf81vftsXv3jDR9hrh7RaU8dSlLkSKR4gSNzHYK7urio/VPX0gKLCsY6wpFEoI0jM2XP0N1lZX2Z+OeL9R1vM6w4LizMYSs0mk+jxPrdIx75a0yzdOMuHmyn/9mjIzYNjhqoH1RpGG0QFVWZnXfCqWqNUqLxy1gXvWZxXUx1vvFyal2GAqcSAy+HyISiNaINLh2ixzBpPs3fAWeV4bWGG915c5qVOnSUCUV/Do6OkRZFYKL6VkfX8btNy50DITEJHWa7WHK/UwooihVMvKDIpJ6Z+HY9lJf9pK2D949L/v9o45Tj+P5DiM2iWq4bLSx02h9vsdbt8uZdze2GGtUW4StBsSqKUjXbgrUcrT1PCMIbleoX6akJdGToLns+7KZv9jN6gTy4epw05CU5rcq/xeWQTlMJLscRDnC4RQ4TAuyoRxKeQeZyzaBuKS5x3kI+Yq1VYn6lweX6Ol2vC63MN3jzT4AyCjilXiV1SwXTc2ggDhKep4+bDXb7a65JUK1xdmOVqu8kSk6FCmUwYK/r5gpF4/jd92uQbLv//2lQCtbCihDdEUsHLtLThz1bn2TzocrS7zb423D7OWep6zjSFtgrNb4awIRcLIjk10VTwpMALDaF9qcYlany8O+KT+4ds5Cd0s5yRS0gTz0ASet7RyzIkqSHGhPi0sHFpU6CbtETPnWVgM6reMiMeY1MSn1HVnrN1xSuLs7x1boFXGsI6ZbpTx89YuMQiv+9QZMCGhduHI+7u7HDQT7m8MMeNCyu8OG9CNsoTSvnisu7HiYUckWJNgYmsBTEhO2HPA+m3A9apBeqzrWdCwgiYU/B2G/bnqxxsNdkQxa2He+jBgDdvrLGigheqBwYInRTldjZOsFNjErwBrM9X+Hmzw27e4quDlLt7KY/7GXu5sO+ErTxjkI+wSpNKUryZcp31HhPbRLTLsXlGSwtL1RqrOme92WC9XWOtozhTMSwaw3IizBHYDCjJIFUkgX3gMQuiqA/c3NjlN/+9xcgktFuGlaZwfQEu1aEanWaAXuE5Y2JBikDKE0ZlF9+oj6/5/bCpBGoR+I85wFjUrAjDF84BN5Zn2R6ssPvggCcnQx4oz83NI2qrLS5WTPQwjD1T2KWnYWKfhJFhMwhntJDXE3okXKzWuFhP2RimPHSKu0PH4MEhoyzH2hzRZoIkhxIMCuccRBHe5YU6ry/VeFnlXK4lnG9WWKkLLaCGI8HHSSphNsE4puS0n3PAsfd80s35aKvPV/t98sRwcaXNjYsdzjUCJYV35LHWteRLigjdlmnbWBZZgPWbQfrtcwBTCdSxFT1w0b2KhCUuAa7ONziUCp/s9OlmjoHz/Ou9HSoCM+sdFlUcauajD/U52BxJckLGPPYQeIX1YETQFWH2TJVVqjQc7O9lmMeCT0PMqbSPfYGnMzgOjbUO5TwVY2i2DGsrVa5XarwAzBO8d5WMCpYo64b3PsrtBHdYxOZWQYZmCDweWv75fpdbBzneVKjnI15drPPu2hwtCHSUdlFPK5gnhAFSjA/0E5umMV1VFNV818RUsOkGamFxjZps6lsArjQ0v7h8AXdvg3s7T/jCVdBPDH2j+NVyi3UdFJqVVYgzcXkUbFALoFIEAxLAX4zb2QP+a+OI335+xJEYqAYKXbwLXkl5IA3pWCU4K5BUsdowkow7jw6pHBxx8bWzrDTCMh9KXUJxtsbinMXlHlWpjoXMtA9hSkbkSzP43YHw8c4xj7t92tUaf7Fynp91ZrlIETqErNzzT7RQch7PWsjhynPv+/ZtuoFaFCDF330x557cUTHCUqK5sZpwPJxjlPbZSnvc2jnEeWG9NUt1BpZEaEoophYx5DjyGKvmhOl6RcyaEDpY7/bgiy3L5nGGzCbkiUFEx+ql8GDvbZwVZGIQrGI/l6fbt2wMh3x+b5vz59ustGsxRyTgNdblEHnecKsf55LSyJduAL/fHfLbe3s83D8EVWG90+ad9TavzmkWKDNXpyv2Jy9Hruq5Kn6TIr/fvU0tUH0MsRxh5dJjctrhnUNyQyOByw3orbXIUfz7g0c8Oe7yR3fE+9spSJ2XGnBeQ1OFjYojR8VKfk+ZTCp4+lHmuXN/yGYXfGOGzCucU3gd6jklKlB4LWWbsxR1pg4w6KROno24c+8xr1UdP22vxtcKFfreOpRWKJ2MM65eAkgPgUcWPht6PtjY5Q/3HzNyniurbV4/N89PFxXnDFR8FOKdiG+/bn/q7d+dTS1QIabMY62JHZdIK1yS4COZ3QGutzXK13m8M8OgD72R8I+fb/HgYIF31mZ5bxnOCiQeEnSsmi/qi/w4++WBvrXc297mySBhWJ8NnauAWI9yCiUS0rM+id3SRYJSxkfxkpA6w04/5SDNxrt6sSHg1qY2loKUwpMSZ2lZ+M8dyz989iUbJ0MqrQYXnOMX5xq8t15lQYO3GZnLqJkqE5T+VNtUAxXich9ZVMGH9g4J01K8h7qDRMPLbcO7lzpoU+HT7R6PD/qcWENuwQzh7eUql2phEyO+LC72hVuNSacUOExTelbjRcdsVABY2Jw5RAnKqaCaJ8SYdbwbIm5xOMkdfetICfGkjzSExPaXYjapIzQr3joa8tF+xofbJ3y5f0zq4HJnll+uzvLOuVkuaGji0Vi0FJHtN5H502XTC1RfnoJiNxwyQ5MZakFHCaczRvFXF1oYoxlkjlQ8J8MetzcGpPuG3M6jL1Vo42mJ0CDEeMqHoQ7haJG/1aGzkzGwisEQpSCEP9WqcroVWQiV/1Z5srg5ygEX3XYGWB/UtEcSPWkv5Z/uHfLx1iFbgx6zNUNdG661Kvzq2gpXEk3VB6n0RIGWH4YnLWx6gQplC5MSUKaM57wjkTBcQiWQW6hYOKPh3dUGnYbmXzaO+WRzn63jHveHLX59t88fDuHN83Nc78BlHSijSuw+0R5MEsFbkDYxcPV5hs0tKDOmdexkjx6x3cRLKJD2DhGHTgSnJUqVB8uBngOvA0A3gA82+7x/Z5cHvSGH/QFGLFfm67y5vshfrs5zKVHME95jZi25BkRFiu37F2/+X2xqgSqTl3x5i8JjKOTCo2iYCoBLPBgl6PkaiGe2ovj4SY8vtgfsDxz7I08/T9k91Gy3E36y2GIpEeomcKNh1FrswZKQfiTLIssTxuiMY9HYhx8eF0l1JzFjH4UujMHrME9gRJB51wJDDdvDnLtHQz7rpXz8ZMgXeyN6ox5zs1WuLS/w1lKdGystrtUT2kC1EOVVmmII7w8FpDDFQAUm1v640BfhQCE864tRtJ5E+fHGpI3wxlyduWadmcYcJ8d32Rnl5HbI7UdbPH3qeNBp0dUJL7ZqdJSnGgtZjoCh6OAxsZCPoJJAYvBpscRHYtcJpZZV0b0a5HusKJzS5HGewC7QdeG5feCz3T4f3N3n040DBqpCfaZO3Sh+stbhnasrvDUbisXrPoxXF8A7wRjDpJDG93mAxJ9i0w1UKJ1GRogDdHGGYq7dhem8ovXYzxTx5zUDc8uaCz+/xM37u3z6aIvtrM8WCUfHQ/74+7ss1mtcmG/x6oUl1luwn2iOVRTn0R4138SnOX40DC0l3jBuey6CVJEYo7iCKiXL4XgkDG3I1e8BT4eWh0+PebC5z/5JzsnA0hulzFQ8LzSqvPPKJV6cn+FcErJZ9fg5Cj+OChlb6wMToqd/DzW26QaqxHRllE2WgtPxE4p84kHZGCHocWdSldA23aoInU6FRdosVSy3Ttp8dTJguzdk4zij1h3ycJjx1OastGt0naUnCqomHNOWkwDHAyMm5dOV59RKLBbrFVYMTtV4dOz5j60+T9MeT476bO312NoZYDNhvlLlyoUlrswmvLxY442VFqtAgxwVabQkEvMuftQyBfrDMvH+9IiB6bDyLXvr8M4jJsaF3kOeBxZUh1jSS0iJepJQPeR11PgPJPqAsHHZBj7qwYePtvlsc4uDDIbWQZ6j0yFeNINqk4PmAr2kQe4F0mFwXVIFWwAVxpRQsZkad27m4C21LGd+NGRBK+ractzfwroRJjFUVZuGGNZm6vzspTWuL+pIPYV6gASHJgmSEfH1vA2crzbPW+2nH7ZTDNSYhYoFFQ4TeEjv0d5PnKwwsKH0MwGoxGsu0j8ZAbCHDg6znCeDEbe7KXe29ri/vcve/iEDMQybHU5mVugnTaw3cbKDCoXSNmygtIB1GYEbI+T/iQUgGrA5epTSGmY0syFJ1ifJuszXYK3T5MWVVa50mlxsaZYqFWaSomiFODvLY5AYnkv5u40aVTI5u+oH4l+nHKh5vCZYzLgtoyioLmfS+/Kff0ZgQcJRQl6raGcTusC9keXe0TEPD47Y7PXZSg1beZXNNGEv0/SzIttU6EZ5jPYo8aSS4nVR71nBWou3FlEK5Sx151gwCQsGzlQcZ2sZ5xrChWaVS3PzrLcTFtVp+R1z6rNxutWZ4obJ7tIibfEjUL8jK4AXYtECqJMlaYHGLNiAsk+/1AaJx5HyiIVZYOSFXvS2XcLEu69G8MWu5cvNAzaP+xyPHNZrrDI4PFlmQ2G/yunaHtooKkkVIcE6h89yEqCKZ7aiWZltcb4zywsLVa4twJqUJX81ysp+DaWMP8/CbuKdC5RqW8KPQP3OzZ/6WwK09KESr409z+SnHMcFfrxcFpmsQpbc+bAjdyrUEwyAvod+DsM0Y2g9J86zb4UjJxwNc7b3ungRRi7l3oMvac3OcHZ5BZ0ldFp1FtpBJrKtPG2tMFpTN5qZRJjXoeW70IYqVFDG7/RZPH7tuyjuOPVBn/uMabQp3fXHeK9ISU72KsnkvRO3T7ijMuVewDoGDVHOXLygIz9Z7IMahAIXlYBKQgFdSvC0YWhwwl7dIbU6j7cec/M3v+byn7/BX7/9Gn5gaTcqzDUD69AkUEshcg4xZ1DlC+9cA/iiXZnAaDwPdJMDhCn+PEP0Tz9GgakFKjzvDEz6V3n2sUKJUClPb9GgceogEaCmOP+OsmTOlaCoiWfBCG0R8gpcXGxSAz7aybn193/H9arw7t/+DYOZcMiisHsMQMoRFAVIi9s9DudtLCeIckITzww2IT1U/HB9+U2Ued7pt/8Bh/My00yatCUAAAAASUVORK5CYII=;" vertex="1" parent="WIyWlLk6GJQsqaUBKTNV-1">
          <mxGeometry x="500" y="165.59" width="84.34" height="70.94" as="geometry" />
        </mxCell>
        <mxCell id="u5dyA5r-_2eAr6q3dXi0-9" value="Jenkins" style="rounded=0;whiteSpace=wrap;html=1;fillColor=#d5e8d4;strokeColor=#82b366;" vertex="1" parent="WIyWlLk6GJQsqaUBKTNV-1">
          <mxGeometry x="482.17" y="334" width="120" height="60" as="geometry" />
        </mxCell>
        <mxCell id="u5dyA5r-_2eAr6q3dXi0-12" value="" style="aspect=fixed;perimeter=ellipsePerimeter;html=1;align=center;shadow=0;dashed=0;spacingTop=3;image;image=img/lib/active_directory/database_server.svg;" vertex="1" parent="WIyWlLk6GJQsqaUBKTNV-1">
          <mxGeometry x="690" y="270" width="41" height="50" as="geometry" />
        </mxCell>
        <mxCell id="u5dyA5r-_2eAr6q3dXi0-13" value="" style="aspect=fixed;perimeter=ellipsePerimeter;html=1;align=center;shadow=0;dashed=0;spacingTop=3;image;image=img/lib/active_directory/database_server.svg;" vertex="1" parent="WIyWlLk6GJQsqaUBKTNV-1">
          <mxGeometry x="690" y="400" width="41" height="50" as="geometry" />
        </mxCell>
        <mxCell id="u5dyA5r-_2eAr6q3dXi0-16" value="" style="edgeStyle=elbowEdgeStyle;elbow=horizontal;endArrow=classic;html=1;rounded=0;entryX=0;entryY=0.75;entryDx=0;entryDy=0;" edge="1" parent="WIyWlLk6GJQsqaUBKTNV-1" target="u5dyA5r-_2eAr6q3dXi0-12">
          <mxGeometry width="50" height="50" relative="1" as="geometry">
            <mxPoint x="600" y="360" as="sourcePoint" />
            <mxPoint x="650" y="310" as="targetPoint" />
          </mxGeometry>
        </mxCell>
        <mxCell id="u5dyA5r-_2eAr6q3dXi0-17" value="" style="edgeStyle=elbowEdgeStyle;elbow=horizontal;endArrow=classic;html=1;rounded=0;entryX=-0.211;entryY=0.613;entryDx=0;entryDy=0;entryPerimeter=0;" edge="1" parent="WIyWlLk6GJQsqaUBKTNV-1" target="u5dyA5r-_2eAr6q3dXi0-13">
          <mxGeometry width="50" height="50" relative="1" as="geometry">
            <mxPoint x="600" y="360" as="sourcePoint" />
            <mxPoint x="680" y="420" as="targetPoint" />
            <Array as="points">
              <mxPoint x="645" y="390" />
            </Array>
          </mxGeometry>
        </mxCell>
        <mxCell id="u5dyA5r-_2eAr6q3dXi0-18" value="kafka Server" style="text;html=1;align=center;verticalAlign=middle;resizable=0;points=[];autosize=1;strokeColor=none;fillColor=none;" vertex="1" parent="WIyWlLk6GJQsqaUBKTNV-1">
          <mxGeometry x="655" y="315" width="90" height="30" as="geometry" />
        </mxCell>
        <mxCell id="u5dyA5r-_2eAr6q3dXi0-19" value="ssh: 22" style="text;html=1;align=center;verticalAlign=middle;resizable=0;points=[];autosize=1;strokeColor=none;fillColor=none;" vertex="1" parent="WIyWlLk6GJQsqaUBKTNV-1">
          <mxGeometry x="660" y="334" width="60" height="30" as="geometry" />
        </mxCell>
        <mxCell id="u5dyA5r-_2eAr6q3dXi0-20" value="kafka Server" style="text;html=1;align=center;verticalAlign=middle;resizable=0;points=[];autosize=1;strokeColor=none;fillColor=none;" vertex="1" parent="WIyWlLk6GJQsqaUBKTNV-1">
          <mxGeometry x="655" y="450" width="90" height="30" as="geometry" />
        </mxCell>
        <mxCell id="u5dyA5r-_2eAr6q3dXi0-21" value="ssh: 22" style="text;html=1;align=center;verticalAlign=middle;resizable=0;points=[];autosize=1;strokeColor=none;fillColor=none;" vertex="1" parent="WIyWlLk6GJQsqaUBKTNV-1">
          <mxGeometry x="660" y="470" width="60" height="30" as="geometry" />
        </mxCell>
        <mxCell id="u5dyA5r-_2eAr6q3dXi0-22" value="User" style="text;html=1;align=center;verticalAlign=middle;resizable=0;points=[];autosize=1;strokeColor=none;fillColor=none;" vertex="1" parent="WIyWlLk6GJQsqaUBKTNV-1">
          <mxGeometry x="100" y="400" width="50" height="30" as="geometry" />
        </mxCell>
      </root>
    </mxGraphModel>
  </diagram>
</mxfile>
